<svg width="21" height="20" viewBox="0 0 21 20" fill="none" xmlns="http://www.w3.org/2000/svg">
<path d="M20.2329 5.33333V18.6667C20.2329 19.0203 20.0921 19.3594 19.8416 19.6094C19.591 19.8595 19.2512 20 18.8969 20H5.53684C4.11959 20 2.76028 19.4381 1.75805 18.4379C0.75593 17.4377 0.192871 16.0811 0.192871 14.6667V5.33333C0.192871 3.91887 0.75593 2.56226 1.75805 1.56205C2.76028 0.561949 4.11959 0 5.53684 0H14.8889C16.3063 0 17.6655 0.561949 18.6677 1.56205C19.6699 2.56226 20.2329 3.91887 20.2329 5.33333Z" fill="#4B4EDE"/>
<path d="M15.7182 6.83251L10.8219 9.62841C10.6826 9.70708 10.5251 9.74841 10.3649 9.74841C10.2048 9.74841 10.0474 9.70708 9.90808 9.62841L5.00554 6.83251C4.94513 6.79897 4.8948 6.74995 4.85977 6.69056C4.82473 6.63108 4.80624 6.56349 4.80624 6.49456C4.80624 6.42574 4.82473 6.35805 4.85977 6.29867C4.8948 6.23928 4.94513 6.19025 5.00554 6.15661L9.90808 3.36687C10.0456 3.28995 10.2009 3.24944 10.3588 3.24944C10.5166 3.24944 10.6719 3.28995 10.8095 3.36687L15.7491 6.15046C15.8079 6.18759 15.8558 6.23949 15.8881 6.30092C15.9202 6.36236 15.9355 6.43118 15.9324 6.50041C15.9292 6.56964 15.9078 6.63682 15.8702 6.69518C15.8326 6.75354 15.7802 6.80092 15.7182 6.83251Z" fill="white"/>
<path d="M15.7361 10.2979L10.8179 13.1531C10.6809 13.2289 10.5273 13.2687 10.3713 13.2687C10.2151 13.2687 10.0617 13.2289 9.92472 13.1531L5.0002 10.3041C4.94113 10.2685 4.89212 10.218 4.85812 10.1574C4.82412 10.0969 4.80624 10.0285 4.80624 9.95898C4.80624 9.88934 4.82412 9.82093 4.85812 9.76041C4.89212 9.6999 4.94113 9.64944 5.0002 9.61385L6.1786 8.936L9.15559 10.6681L10.3589 11.3835L11.5559 10.6806H11.5869L14.5577 8.94862L15.7484 9.63262C15.7803 9.64606 15.8081 9.6677 15.8291 9.69539C15.8726 9.74144 15.9046 9.79734 15.9222 9.85857C15.9417 9.94226 15.9342 10.0302 15.9007 10.1092C15.8672 10.1883 15.8095 10.2545 15.7361 10.2979Z" fill="white"/>
<path d="M15.748 13.5473L10.8247 16.4027C10.6877 16.4785 10.5339 16.5182 10.3777 16.5182C10.2215 16.5182 10.0677 16.4785 9.93068 16.4027L5.00122 13.5473C4.94195 13.5125 4.89274 13.4627 4.85853 13.4027C4.82422 13.3426 4.80624 13.2746 4.80624 13.2052C4.80624 13.136 4.82422 13.068 4.85853 13.0079C4.89274 12.9479 4.94195 12.8981 5.00122 12.8633L6.18076 12.1855L9.16083 13.9175L10.3653 14.6329L11.5636 13.9301H11.5946L14.5684 12.1981L15.748 12.8884C15.7799 12.9019 15.8077 12.9235 15.8288 12.9511C15.8723 12.9971 15.9043 13.0531 15.9218 13.1143C15.9412 13.1958 15.9348 13.2813 15.9037 13.359C15.8724 13.4366 15.8181 13.5025 15.748 13.5473Z" fill="white"/>
</svg>
