<svg width="20" height="20" viewBox="0 0 20 20" fill="none" xmlns="http://www.w3.org/2000/svg">
<path d="M15.4167 13.3333C17.0275 13.3333 18.3333 10.9082 18.3333 7.91667C18.3333 4.92512 17.0275 2.5 15.4167 2.5M15.4167 13.3333C13.8058 13.3333 12.5 10.9082 12.5 7.91667C12.5 4.92512 13.8058 2.5 15.4167 2.5M15.4167 13.3333L4.53628 11.3551C3.76337 11.2146 3.37691 11.1443 3.06443 10.9908C2.42871 10.6785 1.95529 10.1113 1.76178 9.42994C1.66666 9.09504 1.66666 8.70225 1.66666 7.91667C1.66666 7.13108 1.66666 6.73829 1.76178 6.40339C1.95529 5.72207 2.42871 5.15481 3.06443 4.84254C3.37691 4.68904 3.76337 4.61878 4.53628 4.47825L15.4167 2.5M4.16666 11.6667L4.49487 16.2617C4.52604 16.698 4.54162 16.9162 4.63655 17.0816C4.72013 17.2272 4.84573 17.3441 4.9969 17.4171C5.16859 17.5 5.38733 17.5 5.82482 17.5H7.31015C7.81028 17.5 8.06034 17.5 8.24542 17.4003C8.40804 17.3126 8.53694 17.1734 8.61185 17.0046C8.6971 16.8124 8.67792 16.5631 8.63956 16.0644L8.33332 12.0833" stroke="#98A2B3" stroke-width="1.2" stroke-linecap="round" stroke-linejoin="round"/>
</svg>
