<svg width="41" height="41" viewBox="0 0 41 41" fill="none" xmlns="http://www.w3.org/2000/svg">
<path d="M40.0719 11.5293L39.8662 38.0925C39.8607 38.797 39.5756 39.4705 39.0736 39.9648C38.5716 40.4591 37.8938 40.7337 37.1893 40.7283L10.6261 40.5226C7.80806 40.5007 5.11414 39.3604 3.13695 37.3523C1.15975 35.3442 0.0612319 32.633 0.0830541 29.815L0.227045 11.2207C0.248868 8.40274 1.38924 5.70883 3.3973 3.73163C5.40536 1.75444 8.11661 0.655918 10.9346 0.67774L29.5289 0.821731C32.3469 0.843553 35.0408 1.98393 37.018 3.99199C38.9952 6.00005 40.0937 8.7113 40.0719 11.5293Z" fill="#FAB900"/>
<path d="M30.6408 28.7234L26.4895 24.5073C27.5049 22.9992 28.0502 21.2238 28.0564 19.4058C28.0707 17.567 27.5393 15.7652 26.5296 14.2284C25.5198 12.6916 24.0771 11.4887 22.3837 10.7719C20.6903 10.0551 18.8224 9.85646 17.0161 10.2012C15.2099 10.546 13.5465 11.4186 12.2362 12.7088C10.9259 13.9989 10.0276 15.6487 9.65488 17.4494C9.28218 19.2501 9.45182 21.1208 10.1423 22.8251C10.8329 24.5294 12.0133 25.9906 13.5342 27.024C15.0552 28.0575 16.8485 28.6166 18.6873 28.6309C20.5053 28.6528 22.2889 28.135 23.8126 27.1431L27.9639 31.3592C28.3134 31.7142 28.7896 31.9158 29.2878 31.9196C29.7859 31.9235 30.2652 31.7293 30.6202 31.3798C30.9752 31.0302 31.1768 30.554 31.1806 30.0559C31.1845 29.5577 30.9903 29.0784 30.6408 28.7234ZM24.5654 22.5532C23.9417 23.6684 23.0132 24.5827 21.8885 25.189C20.912 25.7161 19.8175 25.9864 18.7079 25.9746C17.3945 25.9644 16.1135 25.565 15.0271 24.8268C13.9407 24.0887 13.0976 23.0449 12.6043 21.8276C12.1111 20.6102 11.9899 19.274 12.2561 17.9878C12.5224 16.7016 13.164 15.5232 14.0999 14.6016C15.0358 13.6801 16.224 13.0568 17.5142 12.8105C18.8044 12.5643 20.1386 12.7061 21.3481 13.2181C22.5577 13.7302 23.5883 14.5894 24.3095 15.6871C25.0308 16.7848 25.4103 18.0718 25.4001 19.3852C25.3948 20.4949 25.1076 21.585 24.5654 22.5532Z" fill="white"/>
<path d="M19.6948 20.2839C19.5076 20.4698 19.2692 20.5957 19.0102 20.6456C18.7511 20.6955 18.4831 20.6671 18.2402 20.564C17.9974 20.461 17.7907 20.2879 17.6466 20.067C17.5024 19.846 17.4274 19.5871 17.4309 19.3233C17.4337 18.9711 17.2964 18.6322 17.0492 18.3812C16.8021 18.1302 16.4653 17.9876 16.1131 17.9849C15.7608 17.9822 15.4219 18.1195 15.1709 18.3666C14.9199 18.6138 14.7774 18.9505 14.7746 19.3028C14.7692 20.0903 14.9973 20.8618 15.4301 21.5198C15.8629 22.1778 16.481 22.6928 17.2063 22.9997C17.9316 23.3066 18.7316 23.3917 19.5052 23.2442C20.2789 23.0968 20.9915 22.7233 21.553 22.1711C21.7726 21.9187 21.8888 21.5928 21.8785 21.2584C21.8681 20.9241 21.732 20.6059 21.4973 20.3675C21.2626 20.1292 20.9466 19.9881 20.6124 19.9726C20.2783 19.9571 19.9506 20.0683 19.6948 20.2839Z" fill="white"/>
</svg>
