<svg width="41" height="41" viewBox="0 0 41 41" fill="none" xmlns="http://www.w3.org/2000/svg">
<path d="M40.1132 11.4163L40.0099 38.0828C40.0072 38.79 39.7236 39.4672 39.2216 39.9654C38.7196 40.4635 38.0402 40.7418 37.333 40.7391L10.6665 40.6358C7.83754 40.6249 5.12881 39.4906 3.13618 37.4825C1.14355 35.4744 0.0302577 32.7569 0.0412111 29.928L0.113485 11.2614C0.124439 8.43248 1.25874 5.72374 3.26686 3.73112C5.27498 1.73849 7.99242 0.625195 10.8214 0.636148L29.4879 0.708423C32.3169 0.719376 35.0256 1.85368 37.0182 3.8618C39.0108 5.86992 40.1241 8.58735 40.1132 11.4163Z" fill="#7221AC"/>
<path d="M31.675 14.0504L21.0782 20.0761C20.7767 20.2455 20.4364 20.3339 20.0905 20.3326C19.7447 20.3312 19.4051 20.2402 19.1049 20.0684L8.5418 13.9608C8.41159 13.8874 8.30333 13.7806 8.22818 13.6514C8.15303 13.5222 8.11372 13.3753 8.1143 13.2258C8.11488 13.0763 8.15533 12.9297 8.23148 12.8011C8.30762 12.6725 8.41671 12.5665 8.54748 12.4942L19.1573 6.53519C19.4551 6.36931 19.7907 6.28287 20.1316 6.28419C20.4725 6.28551 20.8074 6.37454 21.1039 6.54272L31.7471 12.624C31.8617 12.7075 31.9536 12.8182 32.0147 12.9461C32.0757 13.074 32.1039 13.2151 32.0967 13.3567C32.0896 13.4983 32.0473 13.6358 31.9736 13.7569C31.9 13.878 31.7973 13.9789 31.675 14.0504Z" fill="white"/>
<path d="M31.6332 21.4369L21.0364 27.4626C20.7415 27.6225 20.411 27.7056 20.0755 27.7043C19.74 27.703 19.4102 27.6174 19.1164 27.4552L8.49997 21.3607C8.37317 21.2846 8.26833 21.1768 8.19572 21.048C8.12312 20.9191 8.08525 20.7736 8.08582 20.6257C8.0864 20.4779 8.12539 20.3327 8.19899 20.2044C8.27259 20.0761 8.37826 19.9692 8.50564 19.894L11.0445 18.4638L17.4036 22.1685L20.0643 23.6988L22.6434 22.2154L22.7101 22.2157L29.111 18.5605L31.6653 20.0237C31.7314 20.0563 31.7901 20.1019 31.8381 20.1577C31.9314 20.2558 31.9995 20.375 32.0368 20.5051C32.0782 20.6832 32.0613 20.8698 31.9887 21.0376C31.916 21.2053 31.7914 21.3453 31.6332 21.4369Z" fill="white"/>
<path d="M31.6072 28.7834L21.0105 34.8091C20.7155 34.969 20.3851 35.0521 20.0495 35.0508C19.714 35.0496 19.3842 34.9639 19.0905 34.8017L8.47407 28.6939C8.34703 28.6195 8.24176 28.5131 8.16878 28.3853C8.0958 28.2575 8.05769 28.1128 8.05826 27.9656C8.05883 27.8184 8.09806 27.6739 8.17203 27.5467C8.24599 27.4194 8.35209 27.3139 8.4797 27.2405L11.0186 25.8103L17.3776 29.515L20.0384 31.0453L22.6175 29.562L22.6841 29.5622L29.085 25.907L31.6127 27.3834C31.6787 27.416 31.7375 27.4616 31.7855 27.5174C31.8787 27.6156 31.9469 27.7347 31.9841 27.8649C32.025 28.0382 32.0106 28.2199 31.943 28.3846C31.8754 28.5493 31.758 28.6888 31.6072 28.7834Z" fill="white"/>
</svg>
