<svg width="41" height="41" viewBox="0 0 41 41" fill="none" xmlns="http://www.w3.org/2000/svg">
<path d="M40.0719 11.5293L39.8662 38.0925C39.8607 38.797 39.5756 39.4705 39.0736 39.9648C38.5716 40.4591 37.8938 40.7337 37.1893 40.7282L10.6261 40.5225C7.80806 40.5007 5.11414 39.3604 3.13695 37.3523C1.15975 35.3442 0.0612319 32.633 0.0830541 29.815L0.227045 11.2207C0.248868 8.40273 1.38924 5.70881 3.3973 3.73162C5.40536 1.75442 8.11661 0.655902 10.9346 0.677724L29.5289 0.821716C32.3469 0.843538 35.0408 1.98391 37.018 3.99197C38.9952 6.00003 40.0937 8.71128 40.0719 11.5293Z" fill="#2E90FA"/>
<path d="M10.0298 32.9051C10.7822 33.1362 11.7995 33.1402 13.5289 33.1469L26.5288 33.1972C28.2582 33.2039 29.2755 33.2078 30.0296 32.9825M10.0298 32.9051C9.86852 32.8556 9.71939 32.7956 9.57804 32.7228C8.87383 32.3606 8.30238 31.7847 7.94559 31.0777C7.53997 30.274 7.54404 29.2239 7.55217 27.1237L7.6025 14.1238C7.61063 12.0236 7.6147 10.9735 8.02653 10.1729C8.38878 9.46872 8.96468 8.89727 9.67167 8.54048C10.4754 8.13486 11.5255 8.13892 13.6257 8.14706L26.6256 8.19739C28.7258 8.20552 29.7759 8.20959 30.5764 8.62142C31.2807 8.98367 31.8521 9.55956 32.2089 10.2666C32.6145 11.0703 32.6104 12.1204 32.6023 14.2206L32.552 27.2205C32.5438 29.3207 32.5398 30.3707 32.128 31.1713C31.7657 31.8755 31.1898 32.447 30.4828 32.8038C30.3409 32.8754 30.1913 32.9342 30.0296 32.9825M10.0298 32.9051C10.0342 31.8935 10.0423 31.3582 10.1336 30.9083C10.5358 28.9263 12.0923 27.3819 14.0773 26.995C14.5606 26.9008 15.1414 26.9031 16.3031 26.9076L23.803 26.9366C24.9646 26.9411 25.5455 26.9433 26.0281 27.0413C28.01 27.4435 29.5545 29 29.9413 30.9849C30.0291 31.4356 30.0331 31.9709 30.0296 32.9825M25.0893 17.5665C25.0786 20.3279 22.8314 22.5578 20.07 22.5471C17.3086 22.5364 15.0787 20.2892 15.0894 17.5278C15.1001 14.7664 17.3473 12.5365 20.1087 12.5472C22.8701 12.5579 25.1 14.8051 25.0893 17.5665Z" stroke="white" stroke-width="2.2" stroke-linecap="round" stroke-linejoin="round"/>
</svg>
