<svg width="32" height="32" viewBox="0 0 32 32" fill="none" xmlns="http://www.w3.org/2000/svg">
<path d="M0 8C0 3.58172 3.58172 0 8 0H24C28.4183 0 32 3.58172 32 8V30C32 31.1046 31.1046 32 30 32H8C3.58172 32 0 28.4183 0 24V8Z" fill="#FF9C66"/>
<path fill-rule="evenodd" clip-rule="evenodd" d="M24.3333 11.8333V10.1667C24.3333 9.45671 23.9009 8.91299 23.4264 8.53904C22.9425 8.15769 22.294 7.85071 21.5668 7.60833C20.1038 7.12066 18.1357 6.83333 16 6.83333C13.8643 6.83333 11.8962 7.12066 10.4332 7.60833C9.70603 7.85071 9.05747 8.15769 8.57358 8.53904C8.09908 8.91299 7.66667 9.45671 7.66667 10.1667V11.8333C7.66667 12.5411 8.09433 13.085 8.56839 13.4607C9.05076 13.8429 9.6976 14.1502 10.4236 14.3925C11.8842 14.8802 13.8527 15.1667 16 15.1667C18.1473 15.1667 20.1158 14.8802 21.5764 14.3925C22.3024 14.1502 22.9492 13.8429 23.4316 13.4607C23.9057 13.085 24.3333 12.5411 24.3333 11.8333ZM9.33333 10.1669C9.33333 10.1669 9.33348 10.1715 9.33588 10.1794C9.33871 10.1887 9.34569 10.207 9.36256 10.2345C9.39793 10.2921 9.47007 10.3788 9.6052 10.4853C9.88035 10.7021 10.3301 10.9338 10.9602 11.1439C12.2117 11.561 13.9936 11.8333 16 11.8333C18.0064 11.8333 19.7883 11.561 21.0398 11.1439C21.6699 10.9338 22.1197 10.7021 22.3948 10.4853C22.5299 10.3788 22.6021 10.2921 22.6374 10.2345C22.6543 10.207 22.6613 10.1887 22.6641 10.1794C22.6666 10.1714 22.6667 10.1667 22.6667 10.1667C22.6667 10.1667 22.6667 10.1625 22.6641 10.1539C22.6613 10.1446 22.6543 10.1263 22.6374 10.0988C22.6021 10.0412 22.5299 9.95456 22.3948 9.84806C22.1197 9.63122 21.6699 9.3995 21.0398 9.18947C19.7883 8.77231 18.0064 8.5 16 8.5C13.9936 8.5 12.2117 8.77231 10.9602 9.18947C10.3301 9.3995 9.88035 9.63122 9.6052 9.84806C9.47007 9.95456 9.39793 10.0412 9.36256 10.0988C9.34569 10.1263 9.33871 10.1446 9.33588 10.1539C9.33332 10.1623 9.33333 10.1669 9.33333 10.1669Z" fill="white"/>
<path d="M23.9931 14.75C23.8947 14.75 23.8019 14.7934 23.7331 14.8637C23.6397 14.9593 23.5404 15.0473 23.439 15.1275C22.9562 15.5098 22.3087 15.817 21.582 16.0594C20.1199 16.547 18.1494 16.8335 16 16.8335C13.8505 16.8335 11.8801 16.547 10.418 16.0594C9.69129 15.817 9.0438 15.5098 8.56095 15.1275C8.45955 15.0473 8.36027 14.9593 8.26684 14.8637C8.19807 14.7934 8.10531 14.75 8.00693 14.75C7.81901 14.75 7.66667 14.9023 7.66667 15.0903V16.8333C7.66667 17.5411 8.09433 18.085 8.56839 18.4607C9.05076 18.8429 9.6976 19.1502 10.4236 19.3925C11.8842 19.8802 13.8527 20.1667 16 20.1667C18.1473 20.1667 20.1158 19.8802 21.5764 19.3925C22.3024 19.1502 22.9492 18.8429 23.4316 18.4607C23.9057 18.085 24.3333 17.5411 24.3333 16.8333V15.0903C24.3333 14.9023 24.181 14.75 23.9931 14.75Z" fill="white"/>
<path d="M23.9931 19.75C23.8947 19.75 23.8019 19.7934 23.7331 19.8637C23.6397 19.9593 23.5404 20.0473 23.439 20.1275C22.9562 20.5098 22.3087 20.817 21.582 21.0594C20.1199 21.547 18.1494 21.8335 16 21.8335C13.8505 21.8335 11.8801 21.547 10.418 21.0594C9.69129 20.817 9.0438 20.5098 8.56095 20.1275C8.45955 20.0473 8.36027 19.9593 8.26684 19.8637C8.19807 19.7934 8.10531 19.75 8.00693 19.75C7.81901 19.75 7.66667 19.9023 7.66667 20.0903V21.8333C7.66667 22.5411 8.09433 23.085 8.56839 23.4607C9.05076 23.8429 9.6976 24.1502 10.4236 24.3925C11.8842 24.8802 13.8527 25.1667 16 25.1667C18.1473 25.1667 20.1158 24.8802 21.5764 24.3925C22.3024 24.1502 22.9492 23.8429 23.4316 23.4607C23.9057 23.085 24.3333 22.5411 24.3333 21.8333V20.0903C24.3333 19.9023 24.181 19.75 23.9931 19.75Z" fill="white"/>
</svg>
