<svg width="32" height="32" viewBox="0 0 32 32" fill="none" xmlns="http://www.w3.org/2000/svg">
<path d="M0 8C0 3.58172 3.58172 0 8 0H24C28.4183 0 32 3.58172 32 8V30C32 31.1046 31.1046 32 30 32H8C3.58172 32 0 28.4183 0 24V8Z" fill="#F97066"/>
<path fill-rule="evenodd" clip-rule="evenodd" d="M21.6474 13.5C21.6539 13.5 21.6603 13.5 21.6667 13.5L23.6667 13.5C23.673 13.5 23.6794 13.5 23.6859 13.5C23.7852 13.5 23.9037 13.4999 24.0082 13.5084C24.1292 13.5183 24.3025 13.5437 24.4841 13.6362C24.7193 13.7561 24.9106 13.9473 25.0304 14.1825C25.123 14.3641 25.1483 14.5375 25.1582 14.6585C25.1667 14.7629 25.1667 14.8815 25.1667 14.9807C25.1667 14.9872 25.1667 14.9937 25.1667 15V23.6667C25.1667 23.673 25.1667 23.6794 25.1667 23.6859C25.1667 23.7852 25.1667 23.9038 25.1582 24.0082C25.1483 24.1292 25.123 24.3025 25.0304 24.4842C24.9106 24.7194 24.7193 24.9106 24.4841 25.0304C24.3025 25.123 24.1292 25.1483 24.0082 25.1582C23.9037 25.1668 23.7852 25.1667 23.6859 25.1667C23.6794 25.1667 23.673 25.1667 23.6667 25.1667H15C14.9936 25.1667 14.9872 25.1667 14.9807 25.1667C14.8814 25.1667 14.7629 25.1667 14.6585 25.1582C14.5374 25.1483 14.3641 25.123 14.1825 25.0304C13.9473 24.9106 13.7561 24.7194 13.6362 24.4841C13.5437 24.3025 13.5183 24.1292 13.5084 24.0082C13.4999 23.9038 13.4999 23.7852 13.5 23.6859C13.5 23.6794 13.5 23.673 13.5 23.6667V21.6667C13.5 21.6603 13.5 21.6539 13.5 21.6474C13.4999 21.5481 13.4999 21.4296 13.5084 21.3251C13.5183 21.2041 13.5437 21.0308 13.6362 20.8492C13.7561 20.614 13.9473 20.4227 14.1825 20.3029C14.3641 20.2104 14.5374 20.185 14.6585 20.1751C14.7629 20.1666 14.8814 20.1666 14.9807 20.1667C14.9872 20.1667 14.9937 20.1667 15 20.1667H16.8333V18.3333C16.8333 18.327 16.8333 18.3206 16.8333 18.314C16.8333 18.2148 16.8332 18.0962 16.8418 17.9918C16.8517 17.8708 16.877 17.6975 16.9696 17.5158C17.0894 17.2806 17.2806 17.0894 17.5158 16.9696C17.6975 16.877 17.8708 16.8517 17.9918 16.8418C18.0962 16.8332 18.2148 16.8333 18.314 16.8333C18.3206 16.8333 18.327 16.8333 18.3333 16.8333H20.1667V15C20.1667 14.9937 20.1667 14.9872 20.1667 14.9807C20.1666 14.8815 20.1666 14.7629 20.1751 14.6585C20.185 14.5375 20.2104 14.3641 20.3029 14.1825C20.4227 13.9473 20.614 13.7561 20.8492 13.6362C21.0308 13.5437 21.2041 13.5183 21.3251 13.5084C21.4296 13.4999 21.5481 13.5 21.6474 13.5Z" fill="white"/>
<path fill-rule="evenodd" clip-rule="evenodd" d="M14.9807 10.1667C14.9872 10.1667 14.9937 10.1667 15 10.1667H17C17.0063 10.1667 17.0128 10.1667 17.0193 10.1667C17.1185 10.1666 17.2371 10.1666 17.3415 10.1751C17.4625 10.185 17.6359 10.2104 17.8175 10.3029C18.0527 10.4227 18.2439 10.614 18.3637 10.8492C18.4563 11.0308 18.4817 11.2041 18.4915 11.3251C18.5001 11.4296 18.5 11.5481 18.5 11.6474C18.5 11.6539 18.5 11.6603 18.5 11.6667V13.6667C18.5 13.673 18.5 13.6794 18.5 13.6859C18.5 13.7852 18.5001 13.9038 18.4915 14.0082C18.4817 14.1292 18.4563 14.3025 18.3637 14.4842C18.2439 14.7194 18.0527 14.9106 17.8175 15.0304C17.6359 15.123 17.4625 15.1483 17.3415 15.1582C17.2371 15.1668 17.1185 15.1667 17.0193 15.1667C17.0128 15.1667 17.0063 15.1667 17 15.1667H15C14.9937 15.1667 14.9872 15.1667 14.9807 15.1667C14.8814 15.1667 14.7629 15.1668 14.6585 15.1582C14.5374 15.1483 14.3641 15.123 14.1825 15.0304C13.9473 14.9106 13.7561 14.7194 13.6362 14.4842C13.5437 14.3025 13.5183 14.1292 13.5084 14.0082C13.4999 13.9038 13.4999 13.7852 13.5 13.6859C13.5 13.6794 13.5 13.673 13.5 13.6667V11.6667C13.5 11.6603 13.5 11.6539 13.5 11.6474C13.4999 11.5481 13.4999 11.4296 13.5084 11.3251C13.5183 11.2041 13.5437 11.0308 13.6362 10.8492C13.7561 10.614 13.9473 10.4227 14.1825 10.3029C14.3641 10.2104 14.5374 10.185 14.6585 10.1751C14.7629 10.1666 14.8814 10.1666 14.9807 10.1667Z" fill="white"/>
<path fill-rule="evenodd" clip-rule="evenodd" d="M9.14737 15.1667C9.15389 15.1667 9.16032 15.1667 9.16666 15.1667H11.1667C11.173 15.1667 11.1794 15.1667 11.1859 15.1667C11.2852 15.1666 11.4037 15.1666 11.5082 15.1751C11.6292 15.185 11.8025 15.2104 11.9841 15.3029C12.2193 15.4227 12.4106 15.614 12.5304 15.8492C12.623 16.0308 12.6483 16.2041 12.6582 16.3251C12.6667 16.4296 12.6667 16.5481 12.6667 16.6474C12.6667 16.6539 12.6667 16.6603 12.6667 16.6667V18.6667C12.6667 18.673 12.6667 18.6794 12.6667 18.6859C12.6667 18.7852 12.6667 18.9038 12.6582 19.0082C12.6483 19.1292 12.623 19.3025 12.5304 19.4842C12.4106 19.7194 12.2193 19.9106 11.9841 20.0304C11.8025 20.123 11.6292 20.1483 11.5082 20.1582C11.4037 20.1668 11.2852 20.1667 11.1859 20.1667C11.1794 20.1667 11.173 20.1667 11.1667 20.1667H9.16666C9.16032 20.1667 9.15389 20.1667 9.14737 20.1667C9.04811 20.1667 8.92956 20.1668 8.82513 20.1582C8.70412 20.1483 8.53079 20.123 8.34917 20.0304C8.11397 19.9106 7.92274 19.7194 7.8029 19.4842C7.71036 19.3025 7.68499 19.1292 7.6751 19.0082C7.66657 18.9038 7.66661 18.7852 7.66665 18.6859C7.66665 18.6794 7.66666 18.673 7.66666 18.6667V16.6667C7.66666 16.6603 7.66665 16.6539 7.66665 16.6474C7.66661 16.5481 7.66657 16.4296 7.6751 16.3251C7.68499 16.2041 7.71036 16.0308 7.8029 15.8492C7.92274 15.614 8.11397 15.4227 8.34917 15.3029C8.53079 15.2104 8.70412 15.185 8.82513 15.1751C8.92956 15.1666 9.04811 15.1666 9.14737 15.1667Z" fill="white"/>
<path fill-rule="evenodd" clip-rule="evenodd" d="M8.31404 6.83333C8.32055 6.83333 8.32698 6.83333 8.33332 6.83333H10.3333C10.3397 6.83333 10.3461 6.83333 10.3526 6.83333C10.4519 6.83329 10.5704 6.83324 10.6748 6.84178C10.7959 6.85166 10.9692 6.87703 11.1508 6.96957C11.386 7.08941 11.5772 7.28064 11.6971 7.51584C11.7896 7.69746 11.815 7.87079 11.8249 7.9918C11.8334 8.09624 11.8334 8.21478 11.8333 8.31405C11.8333 8.32056 11.8333 8.32699 11.8333 8.33333V10.3333C11.8333 10.3397 11.8333 10.3461 11.8333 10.3526C11.8334 10.4519 11.8334 10.5704 11.8249 10.6749C11.815 10.7959 11.7896 10.9692 11.6971 11.1508C11.5772 11.386 11.386 11.5772 11.1508 11.6971C10.9692 11.7896 10.7959 11.815 10.6748 11.8249C10.5704 11.8334 10.4519 11.8334 10.3526 11.8333C10.3461 11.8333 10.3397 11.8333 10.3333 11.8333H8.33332C8.32698 11.8333 8.32055 11.8333 8.31404 11.8333C8.21478 11.8334 8.09623 11.8334 7.9918 11.8249C7.87078 11.815 7.69746 11.7896 7.51583 11.6971C7.28063 11.5772 7.08941 11.386 6.96956 11.1508C6.87702 10.9692 6.85165 10.7959 6.84177 10.6749C6.83323 10.5704 6.83328 10.4519 6.83332 10.3526C6.83332 10.3461 6.83332 10.3397 6.83332 10.3333V8.33333C6.83332 8.32699 6.83332 8.32056 6.83332 8.31405C6.83328 8.21478 6.83323 8.09624 6.84177 7.9918C6.85165 7.87079 6.87702 7.69746 6.96956 7.51584C7.08941 7.28064 7.28063 7.08941 7.51583 6.96957C7.69746 6.87703 7.87078 6.85166 7.9918 6.84178C8.09623 6.83324 8.21478 6.83329 8.31404 6.83333Z" fill="white"/>
</svg>
