<svg width="32" height="32" viewBox="0 0 32 32" fill="none" xmlns="http://www.w3.org/2000/svg">
<path d="M0 8C0 3.58172 3.58172 0 8 0H24C28.4183 0 32 3.58172 32 8V30C32 31.1046 31.1046 32 30 32H8C3.58172 32 0 28.4183 0 24V8Z" fill="#1D2939"/>
<path fill-rule="evenodd" clip-rule="evenodd" d="M21.6474 13.5C21.6539 13.5 21.6603 13.5 21.6667 13.5L23.6667 13.5C23.673 13.5 23.6795 13.5 23.686 13.5C23.7852 13.5 23.9038 13.4999 24.0082 13.5084C24.1292 13.5183 24.3026 13.5437 24.4842 13.6362C24.7194 13.7561 24.9106 13.9473 25.0304 14.1825C25.123 14.3641 25.1484 14.5375 25.1582 14.6585C25.1668 14.7629 25.1667 14.8815 25.1667 14.9807C25.1667 14.9872 25.1667 14.9937 25.1667 15V23.6667C25.1667 23.673 25.1667 23.6794 25.1667 23.6859C25.1667 23.7852 25.1668 23.9038 25.1582 24.0082C25.1484 24.1292 25.123 24.3025 25.0304 24.4842C24.9106 24.7194 24.7194 24.9106 24.4842 25.0304C24.3026 25.123 24.1292 25.1483 24.0082 25.1582C23.9038 25.1668 23.7852 25.1667 23.686 25.1667C23.6794 25.1667 23.673 25.1667 23.6667 25.1667H15C14.9937 25.1667 14.9872 25.1667 14.9807 25.1667C14.8815 25.1667 14.7629 25.1667 14.6585 25.1582C14.5375 25.1483 14.3642 25.123 14.1825 25.0304C13.9473 24.9106 13.7561 24.7194 13.6363 24.4841C13.5437 24.3025 13.5184 24.1292 13.5085 24.0082C13.4999 23.9038 13.5 23.7852 13.5 23.6859C13.5 23.6794 13.5 23.673 13.5 23.6667V21.6667C13.5 21.6603 13.5 21.6539 13.5 21.6474C13.5 21.5481 13.4999 21.4296 13.5085 21.3251C13.5184 21.2041 13.5437 21.0308 13.6363 20.8492C13.7561 20.614 13.9473 20.4227 14.1825 20.3029C14.3642 20.2104 14.5375 20.185 14.6585 20.1751C14.7629 20.1666 14.8815 20.1666 14.9807 20.1667C14.9873 20.1667 14.9937 20.1667 15 20.1667H16.8334V18.3333C16.8334 18.327 16.8334 18.3206 16.8333 18.314C16.8333 18.2148 16.8333 18.0962 16.8418 17.9918C16.8517 17.8708 16.8771 17.6975 16.9696 17.5158C17.0894 17.2806 17.2807 17.0894 17.5159 16.9696C17.6975 16.877 17.8708 16.8517 17.9918 16.8418C18.0963 16.8332 18.2148 16.8333 18.3141 16.8333C18.3206 16.8333 18.327 16.8333 18.3334 16.8333H20.1667V15C20.1667 14.9937 20.1667 14.9872 20.1667 14.9807C20.1666 14.8815 20.1666 14.7629 20.1751 14.6585C20.185 14.5375 20.2104 14.3641 20.3029 14.1825C20.4228 13.9473 20.614 13.7561 20.8492 13.6362C21.0308 13.5437 21.2041 13.5183 21.3252 13.5084C21.4296 13.4999 21.5481 13.5 21.6474 13.5Z" fill="#98A2B3"/>
<path fill-rule="evenodd" clip-rule="evenodd" d="M14.9807 10.1667C14.9873 10.1667 14.9937 10.1667 15 10.1667H17C17.0064 10.1667 17.0128 10.1667 17.0193 10.1667C17.1186 10.1666 17.2371 10.1666 17.3415 10.1751C17.4626 10.185 17.6359 10.2104 17.8175 10.3029C18.0527 10.4227 18.2439 10.614 18.3638 10.8492C18.4563 11.0308 18.4817 11.2041 18.4916 11.3251C18.5001 11.4296 18.5001 11.5481 18.5 11.6474C18.5 11.6539 18.5 11.6603 18.5 11.6667V13.6667C18.5 13.673 18.5 13.6794 18.5 13.6859C18.5001 13.7852 18.5001 13.9038 18.4916 14.0082C18.4817 14.1292 18.4563 14.3025 18.3638 14.4842C18.2439 14.7194 18.0527 14.9106 17.8175 15.0304C17.6359 15.123 17.4626 15.1483 17.3415 15.1582C17.2371 15.1668 17.1186 15.1667 17.0193 15.1667C17.0128 15.1667 17.0064 15.1667 17 15.1667H15C14.9937 15.1667 14.9873 15.1667 14.9807 15.1667C14.8815 15.1667 14.7629 15.1668 14.6585 15.1582C14.5375 15.1483 14.3642 15.123 14.1825 15.0304C13.9473 14.9106 13.7561 14.7194 13.6363 14.4842C13.5437 14.3025 13.5184 14.1292 13.5085 14.0082C13.4999 13.9038 13.5 13.7852 13.5 13.6859C13.5 13.6794 13.5 13.673 13.5 13.6667V11.6667C13.5 11.6603 13.5 11.6539 13.5 11.6474C13.5 11.5481 13.4999 11.4296 13.5085 11.3251C13.5184 11.2041 13.5437 11.0308 13.6363 10.8492C13.7561 10.614 13.9473 10.4227 14.1825 10.3029C14.3642 10.2104 14.5375 10.185 14.6585 10.1751C14.7629 10.1666 14.8815 10.1666 14.9807 10.1667Z" fill="#98A2B3"/>
<path fill-rule="evenodd" clip-rule="evenodd" d="M9.1474 15.1667C9.15392 15.1667 9.16035 15.1667 9.16669 15.1667H11.1667C11.173 15.1667 11.1795 15.1667 11.186 15.1667C11.2852 15.1666 11.4038 15.1666 11.5082 15.1751C11.6292 15.185 11.8026 15.2104 11.9842 15.3029C12.2194 15.4227 12.4106 15.614 12.5304 15.8492C12.623 16.0308 12.6484 16.2041 12.6582 16.3251C12.6668 16.4296 12.6667 16.5481 12.6667 16.6474C12.6667 16.6539 12.6667 16.6603 12.6667 16.6667V18.6667C12.6667 18.673 12.6667 18.6794 12.6667 18.6859C12.6667 18.7852 12.6668 18.9038 12.6582 19.0082C12.6484 19.1292 12.623 19.3025 12.5304 19.4842C12.4106 19.7194 12.2194 19.9106 11.9842 20.0304C11.8026 20.123 11.6292 20.1483 11.5082 20.1582C11.4038 20.1668 11.2852 20.1667 11.186 20.1667C11.1795 20.1667 11.173 20.1667 11.1667 20.1667H9.16669C9.16035 20.1667 9.15392 20.1667 9.1474 20.1667C9.04814 20.1667 8.92959 20.1668 8.82516 20.1582C8.70415 20.1483 8.53082 20.123 8.3492 20.0304C8.114 19.9106 7.92277 19.7194 7.80293 19.4842C7.71039 19.3025 7.68502 19.1292 7.67513 19.0082C7.6666 18.9038 7.66664 18.7852 7.66668 18.6859C7.66668 18.6794 7.66669 18.673 7.66669 18.6667V16.6667C7.66669 16.6603 7.66668 16.6539 7.66668 16.6474C7.66664 16.5481 7.6666 16.4296 7.67513 16.3251C7.68502 16.2041 7.71039 16.0308 7.80293 15.8492C7.92277 15.614 8.114 15.4227 8.3492 15.3029C8.53082 15.2104 8.70415 15.185 8.82516 15.1751C8.92959 15.1666 9.04814 15.1666 9.1474 15.1667Z" fill="#98A2B3"/>
<path fill-rule="evenodd" clip-rule="evenodd" d="M8.31407 6.83333C8.32058 6.83333 8.32702 6.83333 8.33335 6.83333H10.3334C10.3397 6.83333 10.3461 6.83333 10.3526 6.83333C10.4519 6.83329 10.5704 6.83324 10.6749 6.84178C10.7959 6.85166 10.9692 6.87703 11.1508 6.96957C11.386 7.08941 11.5773 7.28064 11.6971 7.51584C11.7897 7.69746 11.815 7.87079 11.8249 7.9918C11.8334 8.09624 11.8334 8.21478 11.8334 8.31405C11.8334 8.32056 11.8334 8.32699 11.8334 8.33333V10.3333C11.8334 10.3397 11.8334 10.3461 11.8334 10.3526C11.8334 10.4519 11.8334 10.5704 11.8249 10.6749C11.815 10.7959 11.7897 10.9692 11.6971 11.1508C11.5773 11.386 11.386 11.5772 11.1508 11.6971C10.9692 11.7896 10.7959 11.815 10.6749 11.8249C10.5704 11.8334 10.4519 11.8334 10.3526 11.8333C10.3461 11.8333 10.3397 11.8333 10.3334 11.8333H8.33335C8.32702 11.8333 8.32058 11.8333 8.31407 11.8333C8.21481 11.8334 8.09626 11.8334 7.99183 11.8249C7.87081 11.815 7.69749 11.7896 7.51587 11.6971C7.28066 11.5772 7.08944 11.386 6.9696 11.1508C6.87705 10.9692 6.85169 10.7959 6.8418 10.6749C6.83327 10.5704 6.83331 10.4519 6.83335 10.3526C6.83335 10.3461 6.83335 10.3397 6.83335 10.3333V8.33333C6.83335 8.32699 6.83335 8.32056 6.83335 8.31405C6.83331 8.21478 6.83327 8.09624 6.8418 7.9918C6.85169 7.87079 6.87705 7.69746 6.9696 7.51584C7.08944 7.28064 7.28066 7.08941 7.51587 6.96957C7.69749 6.87703 7.87081 6.85166 7.99183 6.84178C8.09626 6.83324 8.21481 6.83329 8.31407 6.83333Z" fill="#98A2B3"/>
</svg>
