<svg width="32" height="32" viewBox="0 0 32 32" fill="none" xmlns="http://www.w3.org/2000/svg">
<path d="M0 8C0 3.58172 3.58172 0 8 0H24C28.4183 0 32 3.58172 32 8V30C32 31.1046 31.1046 32 30 32H8C3.58172 32 0 28.4183 0 24V8Z" fill="#2ED3B7"/>
<path fill-rule="evenodd" clip-rule="evenodd" d="M9.80676 7.66667C10.88 7.6668 11.9554 7.6668 13.0266 7.66667C13.2369 7.66665 13.4417 7.66662 13.6152 7.68079C13.8057 7.69636 14.0305 7.73308 14.2567 7.84833C14.5703 8.00812 14.8252 8.26308 14.985 8.57669C15.1003 8.80287 15.137 9.02765 15.1526 9.21815C15.1667 9.39162 15.1667 9.59645 15.1667 9.80677V13.0266C15.1667 13.2369 15.1667 13.4417 15.1526 13.6152C15.137 13.8057 15.1003 14.0305 14.985 14.2567C14.8252 14.5703 14.5703 14.8252 14.2567 14.985C14.0305 15.1003 13.8057 15.137 13.6152 15.1526C13.4417 15.1667 13.2369 15.1667 13.0266 15.1667H9.80678C9.59645 15.1667 9.39162 15.1667 9.21815 15.1526C9.02766 15.137 8.80288 15.1003 8.57669 14.985C8.26309 14.8252 8.00812 14.5703 7.84833 14.2567C7.73308 14.0305 7.69636 13.8057 7.6808 13.6152C7.66662 13.4417 7.66665 13.2369 7.66667 13.0266C7.66667 13.0177 7.66668 13.0089 7.66668 13V9.83334C7.66668 9.82447 7.66667 9.81561 7.66667 9.80676C7.66665 9.59644 7.66662 9.39161 7.6808 9.21815C7.69636 9.02765 7.73308 8.80287 7.84833 8.57669C8.00812 8.26308 8.26309 8.00812 8.57669 7.84833C8.80288 7.73308 9.02766 7.69636 9.21815 7.68079C9.39162 7.66662 9.59644 7.66665 9.80676 7.66667Z" fill="white"/>
<path fill-rule="evenodd" clip-rule="evenodd" d="M9.80676 16.8333C10.88 16.8335 11.9554 16.8335 13.0266 16.8333C13.2369 16.8333 13.4417 16.8333 13.6152 16.8475C13.8057 16.863 14.0305 16.8997 14.2567 17.015C14.5703 17.1748 14.8252 17.4298 14.985 17.7434C15.1003 17.9695 15.137 18.1943 15.1526 18.3848C15.1667 18.5583 15.1667 18.7631 15.1667 18.9734V22.1932C15.1667 22.4036 15.1667 22.6084 15.1526 22.7819C15.137 22.9724 15.1003 23.1971 14.985 23.4233C14.8252 23.7369 14.5703 23.9919 14.2567 24.1517C14.0305 24.2669 13.8057 24.3037 13.6152 24.3192C13.4417 24.3334 13.2369 24.3334 13.0266 24.3333H9.80678C9.59645 24.3334 9.39162 24.3334 9.21815 24.3192C9.02766 24.3037 8.80288 24.2669 8.57669 24.1517C8.26309 23.9919 8.00812 23.7369 7.84833 23.4233C7.73308 23.1971 7.69636 22.9724 7.6808 22.7819C7.66662 22.6084 7.66665 22.4036 7.66667 22.1933C7.66667 22.1844 7.66668 22.1755 7.66668 22.1667V19C7.66668 18.9911 7.66667 18.9823 7.66667 18.9734C7.66665 18.7631 7.66662 18.5583 7.6808 18.3848C7.69636 18.1943 7.73308 17.9695 7.84833 17.7434C8.00812 17.4298 8.26309 17.1748 8.57669 17.015C8.80288 16.8997 9.02766 16.863 9.21815 16.8475C9.39162 16.8333 9.59644 16.8333 9.80676 16.8333Z" fill="white"/>
<path fill-rule="evenodd" clip-rule="evenodd" d="M18.9734 7.66667C20.0467 7.6668 21.1221 7.6668 22.1933 7.66667C22.4036 7.66665 22.6084 7.66662 22.7819 7.68079C22.9724 7.69636 23.1971 7.73308 23.4233 7.84833C23.7369 8.00812 23.9919 8.26308 24.1517 8.57669C24.2669 8.80287 24.3037 9.02765 24.3192 9.21815C24.3334 9.39162 24.3334 9.59645 24.3333 9.80677V13.0266C24.3334 13.2369 24.3334 13.4417 24.3192 13.6152C24.3037 13.8057 24.2669 14.0305 24.1517 14.2567C23.9919 14.5703 23.7369 14.8252 23.4233 14.985C23.1971 15.1003 22.9724 15.137 22.7819 15.1526C22.6084 15.1667 22.4036 15.1667 22.1932 15.1667H18.9734C18.7631 15.1667 18.5583 15.1667 18.3848 15.1526C18.1943 15.137 17.9695 15.1003 17.7434 14.985C17.4298 14.8252 17.1748 14.5703 17.015 14.2567C16.8998 14.0305 16.863 13.8057 16.8475 13.6152C16.8333 13.4417 16.8333 13.2369 16.8333 13.0266C16.8333 13.0177 16.8333 13.0089 16.8333 13V9.83334C16.8333 9.82447 16.8333 9.81561 16.8333 9.80676C16.8333 9.59644 16.8333 9.39161 16.8475 9.21815C16.863 9.02765 16.8998 8.80287 17.015 8.57669C17.1748 8.26308 17.4298 8.00812 17.7434 7.84833C17.9695 7.73308 18.1943 7.69636 18.3848 7.68079C18.5583 7.66662 18.7631 7.66665 18.9734 7.66667Z" fill="white"/>
<path fill-rule="evenodd" clip-rule="evenodd" d="M18.9734 16.8333C20.0467 16.8335 21.1221 16.8335 22.1933 16.8333C22.4036 16.8333 22.6084 16.8333 22.7819 16.8475C22.9724 16.863 23.1971 16.8997 23.4233 17.015C23.7369 17.1748 23.9919 17.4298 24.1517 17.7434C24.2669 17.9695 24.3037 18.1943 24.3192 18.3848C24.3334 18.5583 24.3334 18.7631 24.3333 18.9734V22.1932C24.3334 22.4036 24.3334 22.6084 24.3192 22.7819C24.3037 22.9724 24.2669 23.1971 24.1517 23.4233C23.9919 23.7369 23.7369 23.9919 23.4233 24.1517C23.1971 24.2669 22.9724 24.3037 22.7819 24.3192C22.6084 24.3334 22.4036 24.3334 22.1932 24.3333H18.9734C18.7631 24.3334 18.5583 24.3334 18.3848 24.3192C18.1943 24.3037 17.9695 24.2669 17.7434 24.1517C17.4298 23.9919 17.1748 23.7369 17.015 23.4233C16.8998 23.1971 16.863 22.9724 16.8475 22.7819C16.8333 22.6084 16.8333 22.4036 16.8333 22.1933C16.8333 22.1844 16.8333 22.1755 16.8333 22.1667V19C16.8333 18.9911 16.8333 18.9823 16.8333 18.9734C16.8333 18.7631 16.8333 18.5583 16.8475 18.3848C16.863 18.1943 16.8998 17.9695 17.015 17.7434C17.1748 17.4298 17.4298 17.1748 17.7434 17.015C17.9695 16.8997 18.1943 16.863 18.3848 16.8475C18.5583 16.8333 18.7631 16.8333 18.9734 16.8333Z" fill="white"/>
</svg>
