<svg width="32" height="32" viewBox="0 0 32 32" fill="none" xmlns="http://www.w3.org/2000/svg">
<path d="M0 8C0 3.58172 3.58172 0 8 0H24C28.4183 0 32 3.58172 32 8V30C32 31.1046 31.1046 32 30 32H8C3.58172 32 0 28.4183 0 24V8Z" fill="#1D2939"/>
<path fill-rule="evenodd" clip-rule="evenodd" d="M12.6719 8.33526C12.6818 8.3419 12.6918 8.34857 12.7019 8.35525L21.4925 14.2157C21.7468 14.3852 21.9827 14.5424 22.1638 14.6885C22.3528 14.8409 22.5757 15.0523 22.7039 15.3616C22.8734 15.7703 22.8734 16.2297 22.7039 16.6385C22.5757 16.9477 22.3528 17.1591 22.1638 17.3115C21.9827 17.4576 21.7469 17.6148 21.4925 17.7843L12.6719 23.6647C12.361 23.872 12.0814 24.0584 11.8442 24.187C11.6068 24.3156 11.281 24.4627 10.9007 24.4399C10.4142 24.4109 9.96484 24.1704 9.67083 23.7817C9.44098 23.4779 9.38255 23.1252 9.35792 22.8564C9.3333 22.5877 9.33332 22.2517 9.33335 21.878L9.33335 10.158C9.33335 10.146 9.33335 10.134 9.33335 10.122C9.33332 9.74833 9.3333 9.41233 9.35792 9.14364C9.38255 8.87476 9.44098 8.5221 9.67083 8.21826C9.96484 7.82961 10.4142 7.58911 10.9007 7.56006C11.281 7.53735 11.6068 7.68436 11.8442 7.81301C12.0814 7.94157 12.361 8.12797 12.6719 8.33526Z" fill="#98A2B3"/>
</svg>
