<svg width="41" height="41" viewBox="0 0 41 41" fill="none" xmlns="http://www.w3.org/2000/svg">
<path d="M40.0719 11.5293L39.8662 38.0925C39.8607 38.797 39.5756 39.4705 39.0736 39.9648C38.5716 40.4591 37.8938 40.7337 37.1893 40.7282L10.6261 40.5225C7.80806 40.5007 5.11414 39.3604 3.13695 37.3523C1.15975 35.3442 0.0612319 32.633 0.0830541 29.815L0.227045 11.2207C0.248868 8.40273 1.38924 5.70881 3.3973 3.73162C5.40536 1.75442 8.11661 0.655902 10.9346 0.677724L29.5289 0.821716C32.3469 0.843538 35.0408 1.98391 37.018 3.99197C38.9952 6.00003 40.0937 8.71128 40.0719 11.5293Z" fill="#7A5AF8"/>
<g opacity="0.12">
<path d="M30.0397 14.4183C30.6476 15.0309 30.6437 16.0202 30.0312 16.628C29.4186 17.2358 28.4293 17.232 27.8215 16.6194C27.2137 16.0069 27.2175 15.0176 27.83 14.4098C28.4426 13.8019 29.4319 13.8058 30.0397 14.4183Z" fill="white"/>
<path d="M13.3611 17.4788C13.9689 18.0913 13.9651 19.0806 13.3525 19.6884C12.74 20.2963 11.7507 20.2924 11.1428 19.6799C10.535 19.0673 10.5388 18.078 11.1514 17.4702C11.7639 16.8624 12.7533 16.8662 13.3611 17.4788Z" fill="white"/>
<path d="M21.7186 11.2611C22.3264 11.8736 22.3226 12.8629 21.71 13.4708C21.0975 14.0786 20.1081 14.0748 19.5003 13.4622C18.8925 12.8497 18.8963 11.8603 19.5089 11.2525C20.1214 10.6447 21.1107 10.6485 21.7186 11.2611Z" fill="white"/>
</g>
<path d="M28.8802 28.5396L28.9084 21.248M20.5469 28.5074L20.5873 18.0908M12.2137 28.4751L12.2298 24.3084M22.0726 12.9168L27.4485 14.9565M19.3545 13.2952L13.5058 17.6465M30.0397 14.4183C30.6476 15.0309 30.6437 16.0202 30.0312 16.628C29.4186 17.2358 28.4293 17.232 27.8215 16.6194C27.2137 16.0069 27.2175 15.0176 27.83 14.4098C28.4426 13.8019 29.4319 13.8058 30.0397 14.4183ZM13.3611 17.4788C13.9689 18.0913 13.9651 19.0806 13.3525 19.6884C12.74 20.2963 11.7507 20.2924 11.1428 19.6799C10.535 19.0673 10.5388 18.078 11.1514 17.4702C11.7639 16.8624 12.7533 16.8662 13.3611 17.4788ZM21.7186 11.2611C22.3264 11.8736 22.3226 12.8629 21.71 13.4708C21.0975 14.0786 20.1081 14.0748 19.5003 13.4622C18.8925 12.8497 18.8963 11.8603 19.5089 11.2525C20.1214 10.6447 21.1107 10.6485 21.7186 11.2611Z" stroke="white" stroke-width="2.2" stroke-linecap="round" stroke-linejoin="round"/>
</svg>
