<svg width="36" height="36" viewBox="0 0 36 36" fill="none" xmlns="http://www.w3.org/2000/svg">
<path d="M9.6665 19.6667L26.3332 19.6667M14.6665 25.5H21.3332M13.6665 23H22.3332C23.7333 23 24.4334 23 24.9681 22.7275C25.4386 22.4878 25.821 22.1054 26.0607 21.635C26.3332 21.1002 26.3332 20.4001 26.3332 19V14.5C26.3332 13.0999 26.3332 12.3998 26.0607 11.865C25.821 11.3946 25.4386 11.0122 24.9681 10.7725C24.4334 10.5 23.7333 10.5 22.3332 10.5H13.6665C12.2664 10.5 11.5663 10.5 11.0315 10.7725C10.5611 11.0122 10.1787 11.3946 9.93899 11.865C9.6665 12.3998 9.6665 13.0999 9.6665 14.5V19C9.6665 20.4001 9.6665 21.1002 9.93899 21.635C10.1787 22.1054 10.5611 22.4878 11.0315 22.7275C11.5663 23 12.2664 23 13.6665 23Z" stroke="#667085" stroke-width="1.2" stroke-linecap="round" stroke-linejoin="round"/>
</svg>
