<svg width="36" height="36" viewBox="0 0 36 36" fill="none" xmlns="http://www.w3.org/2000/svg">
<path d="M3 21L33 21M12 31.5H24M10.2 27H25.8C28.3202 27 29.5804 27 30.543 26.5095C31.3897 26.0781 32.0781 25.3897 32.5095 24.543C33 23.5804 33 22.3202 33 19.8V11.7C33 9.17976 33 7.91965 32.5095 6.95704C32.0781 6.11031 31.3897 5.4219 30.543 4.99047C29.5804 4.5 28.3202 4.5 25.8 4.5H10.2C7.67976 4.5 6.41965 4.5 5.45704 4.99047C4.61031 5.4219 3.9219 6.11031 3.49047 6.95704C3 7.91965 3 9.17976 3 11.7V19.8C3 22.3202 3 23.5804 3.49047 24.543C3.9219 25.3897 4.61031 26.0781 5.45704 26.5095C6.41965 27 7.67976 27 10.2 27Z" stroke="#98A2B3" stroke-width="2" stroke-linecap="round" stroke-linejoin="round"/>
</svg>
