<svg width="36" height="36" viewBox="0 0 36 36" fill="none" xmlns="http://www.w3.org/2000/svg">
<path d="M9.14155 16.8432C9.04831 16.2423 8.99994 15.6268 8.99994 15C8.99994 8.37258 14.4079 3 21.0789 3C27.7499 3 33.1578 8.37258 33.1578 15C33.1578 16.4971 32.8819 17.9302 32.3777 19.2518C32.273 19.5262 32.2207 19.6635 32.1969 19.7706C32.1733 19.8768 32.1643 19.9515 32.1617 20.0602C32.1591 20.1699 32.174 20.2908 32.2037 20.5325L32.8076 25.4378C32.873 25.9688 32.9057 26.2343 32.8173 26.4273C32.74 26.5965 32.6025 26.7308 32.4316 26.8043C32.2366 26.8881 31.9719 26.8493 31.4426 26.7717L26.6647 26.0714C26.4152 26.0348 26.2905 26.0165 26.1769 26.0172C26.0645 26.0178 25.9867 26.0261 25.8767 26.0492C25.7656 26.0726 25.6235 26.1258 25.3395 26.2322C24.0145 26.7285 22.5786 27 21.0789 27C20.4516 27 19.8355 26.9525 19.234 26.8609M11.4474 33C15.8947 33 19.5 29.3063 19.5 24.75C19.5 20.1937 15.8947 16.5 11.4474 16.5C7.00002 16.5 3.39474 20.1937 3.39474 24.75C3.39474 25.6659 3.54041 26.5469 3.80932 27.3701C3.923 27.7181 3.97983 27.892 3.99849 28.0109C4.01796 28.135 4.02137 28.2047 4.01412 28.3301C4.00717 28.4502 3.97712 28.586 3.91702 28.8575L3 33L7.4922 32.3865C7.7374 32.353 7.86 32.3363 7.96705 32.337C8.07978 32.3378 8.13961 32.3439 8.25016 32.3659C8.35516 32.3868 8.51124 32.4419 8.82341 32.5521C9.64589 32.8424 10.5287 33 11.4474 33Z" stroke="#98A2B3" stroke-width="2" stroke-linecap="round" stroke-linejoin="round"/>
</svg>
