<svg width="20" height="20" viewBox="0 0 20 20" fill="none" xmlns="http://www.w3.org/2000/svg">
<g id="users-02">
<path id="Icon" d="M13.3333 2.8898C14.5681 3.50343 15.4167 4.77762 15.4167 6.25C15.4167 7.72238 14.5681 8.99657 13.3333 9.6102M15 13.972C16.2595 14.5419 17.3938 15.4708 18.3333 16.6667M1.66666 16.6667C3.28873 14.6021 5.49097 13.3333 7.91666 13.3333C10.3423 13.3333 12.5446 14.6021 14.1667 16.6667M11.6667 6.25C11.6667 8.32107 9.98772 10 7.91666 10C5.84559 10 4.16666 8.32107 4.16666 6.25C4.16666 4.17893 5.84559 2.5 7.91666 2.5C9.98772 2.5 11.6667 4.17893 11.6667 6.25Z" stroke="#667085" stroke-width="1.2" stroke-linecap="round" stroke-linejoin="round"/>
</g>
</svg>
