<svg xmlns="http://www.w3.org/2000/svg" width="16" height="16" viewBox="0 0 16 16">
    <g fill="none" fill-rule="evenodd">
        <g>
            <g>
                <g>
                    <g>
                        <path fill="#D8D8D8" fill-opacity="0" d="M0 0H16V16H0z" transform="translate(-291 -70) translate(291 70)"/>
                        <path fill="#8A959F" d="M13.347 1.9c.21-.174.522-.162.718.035.21.209.21.547 0 .756L8.757 8l5.308 5.309c.21.209.21.547 0 .756-.196.197-.508.209-.718.035l-.038-.035-5.31-5.308-5.308 5.308-.038.035c-.21.174-.522.162-.718-.035-.21-.209-.21-.547 0-.756l5.308-5.31-5.308-5.308c-.21-.209-.21-.547 0-.756.196-.197.508-.209.718-.035l.038.035L8 7.243l5.309-5.308z" transform="translate(-291 -70) translate(291 70)"/>
                    </g>
                </g>
            </g>
        </g>
    </g>
</svg>
