<svg xmlns="http://www.w3.org/2000/svg" width="16" height="16" viewBox="0 0 16 16">
    <g fill="none" fill-rule="evenodd">
        <path fill="#D8D8D8" fill-opacity="0" d="M0 0H16V16H0z"/>
        <path fill="#26344A" d="M8 .889c3.927 0 7.111 3.184 7.111 7.111 0 3.927-3.184 7.111-7.111 7.111C4.073 15.111.889 11.927.889 8 .889 4.073 4.073.889 8 .889zm0 1.053C4.654 1.942 1.942 4.654 1.942 8c0 3.346 2.712 6.058 6.058 6.058 3.346 0 6.058-2.712 6.058-6.058 0-3.346-2.712-6.058-6.058-6.058zm0 4.975c.275 0 .5.21.525.479l.002.048v3.925c0 .291-.236.527-.527.527-.275 0-.5-.21-.525-.479l-.002-.048V7.444c0-.291.236-.527.527-.527zm0-2.473c.357 0 .646.29.646.647 0 .357-.289.646-.646.646-.357 0-.646-.29-.646-.646 0-.357.289-.647.646-.647z"/>
    </g>
</svg>
