<svg xmlns="http://www.w3.org/2000/svg" width="16" height="16" viewBox="0 0 16 16">
    <g fill="none" fill-rule="evenodd">
        <path fill="#D8D8D8" fill-opacity="0" d="M0 0H16V16H0z"/>
        <path fill="#26344A" d="M8.095 2c.248 0 .482.065.694.192.169.101.31.233.42.393l.078.126L14.354 12l.036.07c.199.415.175.855-.062 1.259-.12.205-.287.37-.494.489-.167.096-.346.154-.534.174l-.143.007H3.015l-.082-.004c-.204-.014-.398-.074-.576-.177-.207-.12-.374-.284-.494-.489-.226-.386-.257-.801-.092-1.193l.071-.146 5.072-9.298.044-.072c.114-.176.263-.32.443-.429.213-.127.447-.192.694-.192zm0 1.032c-.06 0-.11.014-.162.045-.03.019-.056.04-.075.06l-.024.028-.024.04-5.064 9.284c-.064.116-.063.198.008.319.029.05.066.087.119.117.029.017.058.028.082.035l.034.006.044.002h10.124c.06 0 .11-.014.161-.043.053-.03.09-.068.12-.118.052-.09.065-.157.047-.225l-.019-.051-.023-.046-5.062-9.28c-.03-.055-.07-.096-.123-.128-.051-.03-.102-.045-.163-.045zm-.105 7.549c.356 0 .645.288.645.645 0 .356-.29.645-.645.645-.357 0-.646-.289-.646-.645 0-.357.29-.645.646-.645zm0-4.785c.253 0 .464.182.507.423l.009.093V9.19l-.002.047c-.024.263-.245.47-.514.47-.254 0-.465-.183-.508-.424l-.009-.093V6.312l.002-.047c.024-.263.245-.47.515-.47z"/>
    </g>
</svg>
