<svg width="1591" height="411" viewBox="0 0 1591 411" fill="none" xmlns="http://www.w3.org/2000/svg">
<path d="M303 160V290C303 293.448 301.63 296.754 299.192 299.192C296.754 301.63 293.448 303 290 303H160C146.209 303 132.982 297.521 123.23 287.77C113.479 278.018 108 264.791 108 251V160C108 146.209 113.479 132.982 123.23 123.23C132.982 113.479 146.209 108 160 108H251C264.791 108 278.018 113.479 287.77 123.23C297.521 132.982 303 146.209 303 160Z" fill="#00AF68"/>
<path d="M218.633 205.499H192.633V244.499H218.633V205.499Z" fill="white"/>
<path d="M179.625 205.499H153.625V244.499H179.625V205.499Z" fill="white"/>
<path d="M257.635 205.499H231.635V244.499H257.635V205.499Z" fill="white"/>
<path d="M144.682 177.092L201.362 143.032C202.649 142.265 204.12 141.86 205.619 141.86C207.118 141.86 208.589 142.265 209.877 143.032L266.622 177.092C267.845 177.828 268.858 178.866 269.564 180.107C270.27 181.348 270.644 182.749 270.652 184.177V184.177C270.652 186.383 269.775 188.5 268.215 190.06C266.655 191.62 264.538 192.497 262.332 192.497H148.907C147.806 192.514 146.713 192.311 145.693 191.9C144.672 191.489 143.743 190.878 142.962 190.103C142.181 189.327 141.562 188.404 141.143 187.386C140.724 186.368 140.513 185.277 140.522 184.177V184.177C140.523 182.733 140.909 181.315 141.64 180.07C142.371 178.824 143.421 177.796 144.682 177.092V177.092Z" fill="white"/>
<path d="M264.105 257.501H147.105C143.516 257.501 140.605 260.411 140.605 264.001C140.605 267.591 143.516 270.501 147.105 270.501H264.105C267.695 270.501 270.605 267.591 270.605 264.001C270.605 260.411 267.695 257.501 264.105 257.501Z" fill="white"/>
<path d="M356.182 282.746V135.244H427.609C458.582 135.244 477.088 149.527 477.088 173.483C477.298 180.173 475.491 186.772 471.901 192.422C468.311 198.071 463.105 202.511 456.959 205.165L452.673 206.723L457.154 207.632C473.777 211.137 483.712 224.252 483.712 242.754C483.712 267.035 463.063 282.746 431.115 282.746H356.182ZM385.597 257.751H429.037C448.518 257.751 455.011 247.948 455.011 238.794C455.011 228.017 445.855 221.85 429.882 221.85H385.597V257.751ZM385.597 197.309H423.518C439.751 197.309 449.492 189.843 449.492 177.833C449.492 169.782 444.881 160.174 423.518 160.174H385.597V197.309Z" fill="#111827"/>
<path d="M546.045 284.949C537.767 284.777 529.642 282.696 522.301 278.868C514.96 275.041 508.603 269.57 503.724 262.882C498.846 256.195 495.578 248.471 494.175 240.314C492.772 232.156 493.273 223.784 495.637 215.852C498.002 207.919 502.167 200.64 507.808 194.581C513.448 188.522 520.412 183.847 528.157 180.921C535.901 177.995 544.217 176.897 552.456 177.712C560.694 178.526 568.634 181.232 575.654 185.619L577.667 186.917V179.646H605.719V282.742H577.408V275.47L575.395 276.769C566.628 282.32 556.419 285.166 546.045 284.949V284.949ZM551.174 200.551C547.26 200.642 543.404 201.514 539.831 203.114C536.258 204.715 533.041 207.013 530.368 209.873C527.695 212.733 525.619 216.098 524.264 219.77C522.908 223.442 522.3 227.348 522.474 231.259C522.335 235.135 522.971 239.001 524.346 242.628C525.721 246.255 527.805 249.572 530.478 252.384C533.151 255.195 536.359 257.445 539.913 259.001C543.466 260.558 547.295 261.389 551.174 261.447C556.234 261.559 561.244 260.435 565.77 258.172C570.296 255.909 574.202 252.577 577.148 248.463V248.463V213.795C574.252 209.616 570.361 206.224 565.827 203.923C561.293 201.623 556.257 200.486 551.174 200.616V200.551Z" fill="#111827"/>
<path d="M705.534 282.746V228.666C705.534 211.397 696.768 201.529 681.508 201.529C676.73 201.928 672.096 203.359 667.925 205.724C663.755 208.089 660.148 211.332 657.353 215.227V215.617V282.746H628.652V179.65H656.704V188.545L658.782 186.857C667.075 180.011 677.507 176.29 688.262 176.339C715.599 176.339 733.326 195.816 733.326 226.004V282.746H705.534Z" fill="#111827"/>
<path d="M830.017 282.744L801.446 242.298L783.005 261.709V282.744H754.953V128.62H783.005V225.548L825.731 179.649H860.341L820.601 221.913L865.406 282.744H830.017Z" fill="#111827"/>
<path d="M992.668 282.745L980.98 253.855H911.241L899.553 282.745H868.385L931.955 134.399H960.266L1023.71 282.745H992.668ZM921.89 227.497H970.331L945.786 167.834L921.89 227.497Z" fill="#111827"/>
<path d="M1075.66 286.055C1058.84 286.055 1030.2 281.186 1027.22 248.725H1052.74C1054.81 259.112 1062.61 264.436 1075.92 264.436C1087.54 264.436 1095.4 260.346 1095.4 254.049C1095.4 248.985 1091.11 245.284 1083.97 244.181L1061.24 240.22C1050.01 238.208 1031.18 231.651 1031.18 210.356C1031.18 189.062 1048.19 176.597 1075.59 176.597C1088.58 176.597 1118.51 179.843 1121.63 209.967H1096.18C1094.94 201.657 1087.35 196.983 1075.59 196.983C1063.84 196.983 1058.58 202.566 1058.58 207.305C1058.58 210.616 1060.4 216.394 1072.22 218.536L1091.7 221.653C1112.48 225.353 1122.6 235.156 1122.6 251.452C1121.89 272.876 1104.1 286.055 1075.66 286.055Z" fill="#111827"/>
<path d="M1181.23 286.055C1164.42 286.055 1135.78 281.186 1132.79 248.725H1158.31C1160.39 259.112 1168.18 264.436 1181.43 264.436C1193.12 264.436 1200.91 260.346 1200.91 254.049C1200.91 248.985 1196.62 245.284 1189.42 244.181L1166.69 240.22C1155.52 238.208 1136.69 231.651 1136.69 210.356C1136.69 189.062 1153.7 176.597 1181.04 176.597C1194.03 176.597 1223.96 179.843 1227.08 209.967H1201.62C1200.45 201.657 1192.86 196.983 1181.04 196.983C1169.22 196.983 1164.09 202.566 1164.09 207.305C1164.09 210.616 1165.84 216.394 1177.73 218.536L1197.21 221.653C1218.05 225.353 1228.12 235.156 1228.12 251.452C1227.6 272.876 1209.87 286.055 1181.23 286.055Z" fill="#111827"/>
<path d="M1246.82 282.744V179.648H1274.87V282.744H1246.82ZM1260.71 157.38C1258.49 157.485 1256.28 157.14 1254.2 156.366C1252.12 155.592 1250.22 154.405 1248.61 152.876C1247 151.347 1245.72 149.508 1244.84 147.471C1243.97 145.433 1243.51 143.238 1243.5 141.02C1243.77 136.665 1245.69 132.576 1248.87 129.588C1252.05 126.599 1256.25 124.935 1260.61 124.935C1264.98 124.935 1269.18 126.599 1272.36 129.588C1275.54 132.576 1277.46 136.665 1277.72 141.02C1277.73 143.227 1277.3 145.413 1276.44 147.445C1275.58 149.478 1274.32 151.315 1272.72 152.845C1271.13 154.375 1269.25 155.565 1267.18 156.345C1265.12 157.125 1262.92 157.477 1260.71 157.38V157.38Z" fill="#111827"/>
<path d="M1340 286.055C1323.12 286.055 1294.55 281.186 1291.49 248.725H1317.01C1319.09 259.112 1326.88 264.436 1340.19 264.436C1351.88 264.436 1359.35 260.346 1359.35 254.049C1359.35 248.985 1355.06 245.284 1347.92 244.181L1325.19 240.22C1313.96 238.208 1295.13 231.651 1295.13 210.356C1295.13 189.062 1312.14 176.597 1339.54 176.597C1352.53 176.597 1382.47 179.843 1385.58 209.967H1360.13C1358.89 201.657 1351.3 196.983 1339.54 196.983C1327.79 196.983 1322.53 202.566 1322.53 207.305C1322.53 210.616 1324.35 216.394 1336.23 218.536L1355.71 221.653C1376.49 225.353 1386.62 235.156 1386.62 251.452C1386.36 272.876 1368.57 286.055 1340 286.055Z" fill="#111827"/>
<path d="M1455.65 286.052C1430.71 286.052 1414.61 268.718 1414.61 241.905V202.952H1392.27V179.775H1414.61V141.991H1442.46V179.775H1480.65V202.952H1442.46V241.905C1442.46 253.851 1449.67 260.668 1461.94 260.668C1467.63 260.496 1473.28 259.646 1478.76 258.136L1482.33 281.832C1473.75 284.79 1464.72 286.218 1455.65 286.052V286.052Z" fill="#111827"/>
</svg>
