<svg width="195" height="195" viewBox="0 0 195 195" fill="none" xmlns="http://www.w3.org/2000/svg">
<path d="M195 52V182C195 185.448 193.63 188.754 191.192 191.192C188.754 193.63 185.448 195 182 195H52C38.209 195 24.982 189.521 15.23 179.77C5.479 170.018 0 156.791 0 143V52C0 38.209 5.479 24.982 15.23 15.23C24.982 5.479 38.209 0 52 0H143C156.791 0 170.018 5.479 179.77 15.23C189.521 24.982 195 38.209 195 52Z" fill="#00AF68"/>
<path d="M110.633 97.498H84.6328V136.498H110.633V97.498Z" fill="white"/>
<path d="M71.625 97.498H45.625V136.498H71.625V97.498Z" fill="white"/>
<path d="M149.635 97.498H123.635V136.498H149.635V97.498Z" fill="white"/>
<path d="M36.6818 69.0914L93.3618 35.0314C94.6488 34.2644 96.1198 33.8594 97.6188 33.8594C99.1178 33.8594 100.589 34.2644 101.877 35.0314L158.622 69.0914C159.845 69.8274 160.858 70.8654 161.564 72.1064C162.27 73.3474 162.644 74.7484 162.652 76.1764C162.652 78.3824 161.775 80.4994 160.215 82.0594C158.655 83.6194 156.538 84.4964 154.332 84.4964H40.9068C39.8058 84.5134 38.7128 84.3104 37.6928 83.8994C36.6718 83.4884 35.7428 82.8774 34.9618 82.1024C34.1808 81.3264 33.5618 80.4034 33.1428 79.3854C32.7238 78.3674 32.5128 77.2764 32.5218 76.1764C32.5228 74.7324 32.9088 73.3144 33.6398 72.0694C34.3708 70.8234 35.4208 69.7954 36.6818 69.0914Z" fill="white"/>
<path d="M156.105 149.502H39.1055C35.5165 149.502 32.6055 152.412 32.6055 156.002C32.6055 159.592 35.5165 162.502 39.1055 162.502H156.105C159.695 162.502 162.605 159.592 162.605 156.002C162.605 152.412 159.695 149.502 156.105 149.502Z" fill="white"/>
</svg>
