<svg width="15" height="16" viewBox="0 0 15 16" fill="none" xmlns="http://www.w3.org/2000/svg">
<g clip-path="url(#clip0_15_10)">
<path d="M7.5 4.88854C9.26906 4.88854 10.7034 6.51947 10.7034 8.53121C10.7034 9.77601 10.155 10.8736 9.31875 11.5307V14.7392C9.31875 15.0933 9.08437 15.3845 8.7825 15.424L8.71219 15.4293H6.28781C5.9775 15.4293 5.72062 15.1627 5.68594 14.8203L5.68219 14.7392L5.68031 11.5307C4.84406 10.8725 4.29656 9.77494 4.29656 8.53121C4.29656 6.51947 5.73094 4.88854 7.5 4.88854ZM6.89344 12.1099V14.0501H8.10562V12.1088C7.90969 12.1515 7.70719 12.1739 7.5 12.1739C7.29281 12.1739 7.08937 12.1525 6.89344 12.1099ZM7.5 6.26667C6.40031 6.26667 5.50875 7.28001 5.50875 8.53014C5.50875 9.78027 6.39937 10.7947 7.5 10.7947C8.59969 10.7947 9.49125 9.78134 9.49125 8.53121C9.49125 7.28107 8.60062 6.26774 7.5 6.26774V6.26667ZM13.5609 7.84321C13.8956 7.84321 14.1666 8.15147 14.1666 8.53227C14.1666 8.88641 13.9322 9.17761 13.6312 9.21707L13.5609 9.22134H12.6947C12.36 9.22134 12.0891 8.91307 12.0891 8.53227C12.0891 8.17814 12.3234 7.88694 12.6234 7.84747L12.6947 7.84321H13.5609ZM2.30531 7.84321C2.64 7.84321 2.91094 8.15147 2.91094 8.53227C2.91094 8.88641 2.67656 9.17761 2.37656 9.21707L2.30531 9.22134H1.43906C1.10437 9.22241 0.834373 8.91414 0.834373 8.53334C0.834373 8.17921 1.06875 7.88801 1.36969 7.84854L1.44 7.84427H2.30625L2.30531 7.84321ZM2.67656 2.07681L2.73281 2.13441L3.59906 3.11894C3.83625 3.38774 3.83625 3.82401 3.59906 4.09387C3.38156 4.34241 3.0375 4.36054 2.79937 4.15147L2.74312 4.09387L1.87687 3.10934C1.63969 2.84054 1.63969 2.40321 1.87687 2.13441C2.09531 1.88587 2.43937 1.86667 2.67656 2.07681ZM13.1231 2.13441C13.3416 2.38294 13.3584 2.77441 13.1737 3.04427L13.1231 3.10934L12.2578 4.09387C12.0206 4.36267 11.6372 4.36267 11.4 4.09387C11.1816 3.84534 11.1656 3.45387 11.3503 3.18294L11.4009 3.11894L12.2662 2.13441C12.5034 1.86454 12.8869 1.86454 13.1231 2.13441ZM7.5 0.948273C7.81125 0.948273 8.06719 1.21494 8.10187 1.55734L8.10562 1.63734V2.62187C8.10562 3.00267 7.83469 3.31201 7.5 3.31201C7.18875 3.31201 6.93281 3.04534 6.89812 2.70294L6.89437 2.62187V1.63734C6.89437 1.25654 7.16531 0.948273 7.5 0.948273Z" fill="#202427"/>
</g>
<defs>
<clipPath id="clip0_15_10">
<rect width="15" height="16" fill="white"/>
</clipPath>
</defs>
</svg>
