<?xml version="1.0" encoding="UTF-8"?>
<svg width="16px" height="15px" viewBox="0 0 16 15" version="1.1" xmlns="http://www.w3.org/2000/svg" xmlns:xlink="http://www.w3.org/1999/xlink">
    <!-- Generator: Sketch 53.2 (72643) - https://sketchapp.com -->
    <title>bulb-gray</title>
    <desc>Created with Sketch.</desc>
    <g id="Page-1" stroke="none" stroke-width="1" fill="none" fill-rule="evenodd">
        <g id="bulb-gray" fill-rule="nonzero">
            <polygon id="Path" fill-opacity="0" fill="#D8D8D8" points="0 0 16 0 16 16 0 16"></polygon>
            <path d="M8,4.583 C9.887,4.583 11.417,6.112 11.417,7.998 C11.417,9.165 10.832,10.194 9.94,10.81 L9.94,13.818 C9.94,14.15 9.69,14.423 9.368,14.46 L9.293,14.465 L6.707,14.465 C6.376,14.465 6.102,14.215 6.065,13.894 L6.061,13.818 L6.059,10.81 C5.167,10.193 4.583,9.164 4.583,7.998 C4.583,6.112 6.113,4.583 8,4.583 L8,4.583 Z M7.353,11.353 L7.353,13.172 L8.646,13.172 L8.646,11.352 C8.437,11.392 8.221,11.413 8,11.413 C7.779,11.413 7.562,11.393 7.353,11.353 L7.353,11.353 Z M8,5.875 C6.827,5.875 5.876,6.825 5.876,7.997 C5.876,9.169 6.826,10.12 8,10.12 C9.173,10.12 10.124,9.17 10.124,7.998 C10.124,6.826 9.174,5.876 8,5.876 L8,5.875 Z M14.465,7.353 C14.822,7.353 15.111,7.642 15.111,7.999 C15.111,8.331 14.861,8.604 14.54,8.641 L14.465,8.645 L13.541,8.645 C13.184,8.645 12.895,8.356 12.895,7.999 C12.895,7.667 13.145,7.394 13.465,7.357 L13.541,7.353 L14.465,7.353 L14.465,7.353 Z M2.459,7.353 C2.816,7.353 3.105,7.642 3.105,7.999 C3.105,8.331 2.855,8.604 2.535,8.641 L2.459,8.645 L1.535,8.645 C1.178,8.646 0.89,8.357 0.89,8 C0.89,7.668 1.14,7.395 1.461,7.358 L1.536,7.354 L2.46,7.354 L2.459,7.353 Z M2.855,1.947 L2.915,2.001 L3.839,2.924 C4.092,3.176 4.092,3.585 3.839,3.838 C3.607,4.071 3.24,4.088 2.986,3.892 L2.926,3.838 L2.002,2.915 C1.749,2.663 1.749,2.253 2.002,2.001 C2.235,1.768 2.602,1.75 2.855,1.947 Z M13.998,2.001 C14.231,2.234 14.249,2.601 14.052,2.854 L13.998,2.915 L13.075,3.838 C12.822,4.09 12.413,4.09 12.16,3.838 C11.927,3.605 11.91,3.238 12.107,2.984 L12.161,2.924 L13.084,2.001 C13.337,1.748 13.746,1.748 13.998,2.001 L13.998,2.001 Z M8,0.889 C8.332,0.889 8.605,1.139 8.642,1.46 L8.646,1.535 L8.646,2.458 C8.646,2.815 8.357,3.105 8,3.105 C7.668,3.105 7.395,2.855 7.358,2.534 L7.354,2.458 L7.354,1.535 C7.354,1.178 7.643,0.889 8,0.889 L8,0.889 Z" id="Shape" fill="#8A959F"></path>
        </g>
    </g>
</svg>