<svg width="16" height="16" viewBox="0 0 16 16" fill="none" xmlns="http://www.w3.org/2000/svg">
<g clip-path="url(#clip0_17_2)">
<path fill-rule="evenodd" clip-rule="evenodd" d="M7.99998 0.889008C11.927 0.889008 15.111 4.07301 15.111 8.00001C15.111 11.927 11.927 15.111 7.99998 15.111C4.07298 15.111 0.888977 11.927 0.888977 8.00001C0.888977 4.07301 4.07298 0.889008 7.99998 0.889008ZM7.99998 1.94201C4.65398 1.94201 1.94198 4.65401 1.94198 8.00001C1.94198 11.346 4.65398 14.058 7.99998 14.058C11.346 14.058 14.058 11.346 14.058 8.00001C14.058 4.65401 11.346 1.94201 7.99998 1.94201ZM7.99998 6.91701C8.27498 6.91701 8.49998 7.12701 8.52498 7.39601L8.52698 7.44401V11.369C8.52698 11.66 8.29098 11.896 7.99998 11.896C7.72498 11.896 7.49998 11.686 7.47498 11.417L7.47298 11.369V7.44401C7.47298 7.15301 7.70898 6.91701 7.99998 6.91701ZM7.99998 4.44401C8.35698 4.44401 8.64598 4.73401 8.64598 5.09101C8.64598 5.44801 8.35698 5.73701 7.99998 5.73701C7.64298 5.73701 7.35398 5.44701 7.35398 5.09101C7.35398 4.73401 7.64298 4.44401 7.99998 4.44401Z" fill="#07377F"/>
</g>
<defs>
<clipPath id="clip0_17_2">
<rect width="16" height="16" fill="white"/>
</clipPath>
</defs>
</svg>
