<svg width="16" height="16" viewBox="0 0 16 16" fill="none" xmlns="http://www.w3.org/2000/svg">
<g clip-path="url(#clip0_15_6)">
<path fill-rule="evenodd" clip-rule="evenodd" d="M8 0.889008C11.927 0.889008 15.111 4.07301 15.111 8.00001C15.111 11.927 11.927 15.111 8 15.111C4.073 15.111 0.889 11.927 0.889 8.00001C0.889 4.07301 4.073 0.889008 8 0.889008ZM8 1.94201C4.654 1.94201 1.942 4.65401 1.942 8.00001C1.942 11.346 4.654 14.058 8 14.058C11.346 14.058 14.058 11.346 14.058 8.00001C14.058 4.65401 11.346 1.94201 8 1.94201V1.94201ZM8 6.91701C8.275 6.91701 8.5 7.12701 8.525 7.39601L8.527 7.44401V11.369C8.527 11.66 8.291 11.896 8 11.896C7.725 11.896 7.5 11.686 7.475 11.417L7.473 11.369V7.44401C7.473 7.15301 7.709 6.91701 8 6.91701V6.91701ZM8 4.44401C8.357 4.44401 8.646 4.73401 8.646 5.09101C8.646 5.44801 8.357 5.73701 8 5.73701C7.643 5.73701 7.354 5.44701 7.354 5.09101C7.354 4.73401 7.643 4.44401 8 4.44401Z" fill="#155724"/>
</g>
<defs>
<clipPath id="clip0_15_6">
<rect width="16" height="16" fill="white"/>
</clipPath>
</defs>
</svg>
