<svg width="196" height="195" viewBox="0 0 196 195" fill="none" xmlns="http://www.w3.org/2000/svg">
<path d="M195.004 52V182C195.004 185.448 193.634 188.754 191.196 191.192C188.758 193.63 185.451 195 182.004 195H52.001C38.209 195 24.983 189.521 15.231 179.77C5.479 170.018 0 156.791 0 143V52C0 38.209 5.479 24.982 15.231 15.23C24.983 5.479 38.209 0 52.001 0H143.003C156.794 0 170.021 5.479 179.773 15.23C189.525 24.982 195.004 38.209 195.004 52Z" fill="#AD4FC5"/>
<path d="M136.514 45.4969C139.962 45.4969 143.269 46.8669 145.707 49.3049C148.145 51.7429 149.515 55.0499 149.515 58.4969V123.497H148.475L120.849 95.8719C122.589 92.3319 123.5 88.4419 123.514 84.4969C123.514 77.6019 120.775 70.988 115.899 66.113C111.023 61.237 104.409 58.4969 97.514 58.4969C93.569 58.5109 89.679 59.423 86.138 61.162L103.494 78.517L91.534 90.477L74.178 73.1219C72.438 76.6629 71.527 80.5529 71.513 84.4969C71.513 91.3929 74.253 98.006 79.129 102.882C84.005 107.758 90.618 110.497 97.514 110.497C101.458 110.483 105.348 109.572 108.889 107.832L124.554 123.497H58.513C55.065 123.497 51.758 122.128 49.32 119.69C46.882 117.252 45.513 113.945 45.513 110.497V58.4969C45.513 55.0499 46.882 51.7429 49.32 49.3049C51.758 46.8669 55.065 45.4969 58.513 45.4969H136.514Z" fill="white"/>
<path d="M162.511 136.493H32.509V149.491H162.511V136.493Z" fill="white"/>
</svg>
