<svg width="1066" height="195" viewBox="0 0 1066 195" fill="none" xmlns="http://www.w3.org/2000/svg">
<path d="M195.004 52V182C195.004 185.448 193.634 188.754 191.196 191.192C188.758 193.63 185.451 195 182.004 195H52.001C38.209 195 24.983 189.521 15.231 179.77C5.479 170.018 0 156.791 0 143V52C0 38.209 5.479 24.982 15.231 15.23C24.983 5.479 38.209 0 52.001 0H143.003C156.794 0 170.021 5.479 179.773 15.23C189.525 24.982 195.004 38.209 195.004 52Z" fill="#AD4FC5"/>
<path d="M136.514 45.4969C139.962 45.4969 143.269 46.8669 145.707 49.3049C148.145 51.7429 149.515 55.0499 149.515 58.4969V123.497H148.475L120.849 95.8719C122.589 92.3319 123.5 88.4419 123.514 84.4969C123.514 77.6019 120.775 70.988 115.899 66.113C111.023 61.237 104.409 58.4969 97.514 58.4969C93.569 58.5109 89.679 59.423 86.138 61.162L103.494 78.517L91.534 90.477L74.178 73.1219C72.438 76.6629 71.527 80.5529 71.513 84.4969C71.513 91.3929 74.253 98.006 79.129 102.882C84.005 107.758 90.618 110.497 97.514 110.497C101.458 110.483 105.348 109.572 108.889 107.832L124.554 123.497H58.513C55.065 123.497 51.758 122.128 49.32 119.69C46.882 117.252 45.513 113.945 45.513 110.497V58.4969C45.513 55.0499 46.882 51.7429 49.32 49.3049C51.758 46.8669 55.065 45.4969 58.513 45.4969H136.514Z" fill="white"/>
<path d="M162.511 136.493H32.509V149.491H162.511V136.493Z" fill="white"/>
<path d="M277.631 27.158H248.186V174.813H277.631V27.158Z" fill="#111827"/>
<path d="M342.567 174.813V53.738H292.386V27.158H422.193V53.738H372.012V174.813H342.567Z" fill="#111827"/>
<path d="M574.729 174.812L563.029 145.892H493.217L481.517 174.812H450.316L513.953 26.637H542.293L605.734 175.137L574.729 174.812ZM503.877 119.506H552.368L527.928 59.781L503.877 119.506Z" fill="#111827"/>
<path d="M657.684 178.125C640.783 178.125 612.183 173.251 609.128 140.756H634.673C636.753 151.154 644.554 156.418 657.879 156.418C669.579 156.418 677.379 152.389 677.379 146.085C677.379 141.016 673.089 137.312 665.939 136.207L643.189 132.242C631.943 130.228 613.093 123.664 613.093 102.347C613.093 81.031 630.123 68.488 657.554 68.488C670.554 68.488 700.52 71.803 703.64 101.958H678.159C676.924 93.639 669.319 88.96 657.554 88.96C645.789 88.96 640.523 94.549 640.523 99.293C640.523 102.607 642.344 108.392 654.239 110.536L673.739 113.656C694.539 117.36 704.68 127.173 704.68 143.486C704.095 164.932 686.284 178.125 657.684 178.125Z" fill="#111827"/>
<path d="M763.483 178.125C746.648 178.125 717.982 173.251 714.992 140.756H740.538C742.618 151.154 750.418 156.418 763.743 156.418C775.378 156.418 783.243 152.389 783.243 146.085C783.243 141.016 778.953 137.312 771.738 136.207L749.053 132.242C737.808 130.228 718.957 123.664 718.957 102.347C718.957 81.031 735.988 68.488 763.418 68.488C776.418 68.488 806.384 71.803 809.439 101.958H784.023C782.788 93.639 775.183 88.96 763.418 88.96C751.653 88.96 746.388 94.549 746.388 99.293C746.388 102.607 748.143 108.392 760.038 110.536L779.538 113.656C800.404 117.36 810.544 127.173 810.544 143.486C809.959 164.932 792.149 178.125 763.483 178.125Z" fill="#111827"/>
<path d="M829.137 174.823V71.62H857.218V174.823H829.137ZM843.048 49.329C840.829 49.434 838.611 49.089 836.53 48.314C834.448 47.539 832.545 46.351 830.935 44.82C829.325 43.29 828.042 41.449 827.164 39.409C826.285 37.369 825.829 35.173 825.822 32.952C826.091 28.592 828.013 24.5 831.195 21.508C834.378 18.516 838.582 16.85 842.95 16.85C847.319 16.85 851.523 18.516 854.705 21.508C857.888 24.5 859.809 28.592 860.078 32.952C860.089 35.161 859.651 37.349 858.791 39.384C857.93 41.419 856.665 43.258 855.073 44.789C853.48 46.321 851.593 47.513 849.526 48.293C847.459 49.073 845.255 49.426 843.048 49.329Z" fill="#111827"/>
<path d="M922.43 178.125C905.53 178.125 876.931 173.251 873.876 140.756H899.49C901.57 151.154 909.37 156.418 922.63 156.418C934.33 156.418 942.13 152.389 942.13 146.085C942.13 141.016 937.84 137.312 930.62 136.207L907.87 132.242C896.63 130.228 877.776 123.664 877.776 102.347C877.776 81.031 894.81 68.488 922.24 68.488C935.24 68.488 965.2 71.803 968.32 101.958H942.84C941.61 93.639 934.07 88.96 922.24 88.96C910.41 88.96 905.27 94.549 905.27 99.293C905.27 102.607 907.03 108.392 918.92 110.536L938.42 113.656C959.22 117.36 969.36 127.173 969.36 143.486C968.84 164.932 951.03 178.125 922.43 178.125Z" fill="#111827"/>
<path d="M1038.18 178.141C1013.22 178.141 997.1 160.789 997.1 133.948V94.955H974.87V71.754H997.23V33.8H1025.12V71.624H1063.34V94.825H1025.12V133.818C1025.12 145.776 1032.33 152.6 1044.62 152.6C1050.32 152.438 1055.97 151.565 1061.45 150.001L1065.09 173.787C1056.45 176.806 1047.34 178.28 1038.18 178.141Z" fill="#111827"/>
</svg>
