<svg width="16" height="16" viewBox="0 0 16 16" fill="none" xmlns="http://www.w3.org/2000/svg">
<path d="M10.7544 8.00358C10.7544 7.71836 10.5232 7.48714 10.238 7.48714H5.53474L5.48774 7.48925C5.22455 7.513 5.01831 7.7342 5.01831 8.00358C5.01831 8.2888 5.24952 8.52001 5.53474 8.52001H10.238L10.285 8.5179C10.5482 8.49416 10.7544 8.27295 10.7544 8.00358Z" fill="#806D16"/>
<path d="M10.7544 10.3552C10.7544 10.07 10.5232 9.83877 10.238 9.83877H5.53474L5.48774 9.84088C5.22455 9.86463 5.01831 10.0858 5.01831 10.3552C5.01831 10.6404 5.24952 10.8716 5.53474 10.8716H10.238L10.285 10.8695C10.5482 10.8458 10.7544 10.6246 10.7544 10.3552Z" fill="#806D16"/>
<path d="M9.18669 5.65195C9.18669 5.36673 8.95547 5.13551 8.67025 5.13551H5.53474L5.48774 5.13762C5.22455 5.16137 5.01831 5.38257 5.01831 5.65195C5.01831 5.93717 5.24952 6.16838 5.53474 6.16838H8.67025L8.71726 6.16627C8.98045 6.14252 9.18669 5.92132 9.18669 5.65195Z" fill="#806D16"/>
<path fill-rule="evenodd" clip-rule="evenodd" d="M3.967 2H11.8057C12.5238 2 13.1061 2.5815 13.1061 3.2998V12.7002C13.1061 13.4185 12.5238 14 11.8057 14H3.967C3.24896 14 2.66669 13.4185 2.66669 12.7002V3.2998C2.66669 2.5815 3.24896 2 3.967 2ZM11.8057 3.03287H3.967C3.81909 3.03287 3.69956 3.15225 3.69956 3.2998V12.7002C3.69956 12.8478 3.81909 12.9671 3.967 12.9671H11.8057C11.9536 12.9671 12.0732 12.8478 12.0732 12.7002V3.2998C12.0732 3.15225 11.9536 3.03287 11.8057 3.03287Z" fill="#806D16"/>
</svg>
