<svg width="196" height="195" viewBox="0 0 196 195" fill="none" xmlns="http://www.w3.org/2000/svg">
<path d="M195.076 52V182C195.076 185.448 193.706 188.754 191.267 191.192C188.828 193.63 185.52 195 182.071 195H52.02C38.224 195 24.992 189.521 15.236 179.77C5.481 170.018 0 156.791 0 143V52C0 38.209 5.481 24.982 15.236 15.23C24.992 5.479 38.224 0 52.02 0H143.056C156.853 0 170.084 5.479 179.84 15.23C189.596 24.982 195.076 38.209 195.076 52Z" fill="#4B4EDE"/>
<path d="M151.129 66.617L103.466 93.877C102.11 94.644 100.577 95.047 99.018 95.047C97.459 95.047 95.927 94.644 94.571 93.877L46.848 66.617C46.26 66.29 45.77 65.812 45.429 65.233C45.088 64.653 44.908 63.994 44.908 63.322C44.908 62.651 45.088 61.991 45.429 61.412C45.77 60.833 46.26 60.355 46.848 60.027L94.571 32.827C95.91 32.077 97.4209 31.682 98.9579 31.682C100.495 31.682 102.006 32.077 103.346 32.827L151.429 59.967C152.002 60.329 152.468 60.835 152.782 61.434C153.095 62.033 153.244 62.704 153.214 63.379C153.183 64.054 152.974 64.709 152.608 65.278C152.242 65.847 151.732 66.309 151.129 66.617Z" fill="white"/>
<path d="M151.303 100.404L103.427 128.243C102.094 128.982 100.599 129.37 99.08 129.37C97.56 129.37 96.066 128.982 94.733 128.243L46.796 100.465C46.221 100.118 45.7439 99.625 45.4129 99.035C45.0819 98.445 44.908 97.778 44.908 97.1C44.908 96.421 45.0819 95.754 45.4129 95.164C45.7439 94.574 46.221 94.082 46.796 93.735L58.267 87.126L87.246 104.014L98.959 110.989L110.611 104.136H110.913L139.832 87.249L151.423 93.918C151.733 94.049 152.004 94.26 152.208 94.53C152.632 94.979 152.943 95.524 153.114 96.121C153.304 96.937 153.231 97.794 152.905 98.565C152.579 99.336 152.017 99.981 151.303 100.404Z" fill="white"/>
<path d="M151.419 132.086L103.494 159.926C102.16 160.665 100.663 161.052 99.142 161.052C97.622 161.052 96.125 160.665 94.791 159.926L46.806 132.086C46.229 131.747 45.75 131.261 45.417 130.676C45.083 130.09 44.908 129.427 44.908 128.751C44.908 128.076 45.083 127.413 45.417 126.827C45.75 126.242 46.229 125.756 46.806 125.417L58.2879 118.809L87.297 135.696L99.022 142.671L110.686 135.818H110.988L139.936 118.931L151.419 125.662C151.729 125.793 152 126.004 152.205 126.273C152.629 126.722 152.94 127.268 153.111 127.864C153.299 128.659 153.237 129.493 152.934 130.25C152.63 131.007 152.101 131.649 151.419 132.086Z" fill="white"/>
</svg>
