<svg width="1120" height="195" viewBox="0 0 1120 195" fill="none" xmlns="http://www.w3.org/2000/svg">
<path d="M195.076 52V182C195.076 185.448 193.706 188.754 191.267 191.192C188.828 193.63 185.52 195 182.071 195H52.02C38.224 195 24.992 189.521 15.236 179.77C5.481 170.018 0 156.791 0 143V52C0 38.209 5.481 24.982 15.236 15.23C24.992 5.479 38.224 0 52.02 0H143.056C156.853 0 170.084 5.479 179.84 15.23C189.596 24.982 195.076 38.209 195.076 52Z" fill="#4B4EDE"/>
<path d="M151.129 66.617L103.466 93.877C102.11 94.644 100.577 95.047 99.018 95.047C97.459 95.047 95.927 94.644 94.571 93.877L46.848 66.617C46.26 66.29 45.77 65.812 45.429 65.233C45.088 64.653 44.908 63.994 44.908 63.322C44.908 62.651 45.088 61.991 45.429 61.412C45.77 60.833 46.26 60.355 46.848 60.027L94.571 32.827C95.91 32.077 97.4209 31.682 98.9579 31.682C100.495 31.682 102.006 32.077 103.346 32.827L151.429 59.967C152.002 60.329 152.468 60.835 152.782 61.434C153.095 62.033 153.244 62.704 153.214 63.379C153.183 64.054 152.974 64.709 152.608 65.278C152.242 65.847 151.732 66.309 151.129 66.617Z" fill="white"/>
<path d="M151.303 100.404L103.427 128.243C102.094 128.982 100.599 129.37 99.08 129.37C97.56 129.37 96.066 128.982 94.733 128.243L46.796 100.465C46.221 100.118 45.7439 99.625 45.4129 99.035C45.0819 98.445 44.908 97.778 44.908 97.1C44.908 96.421 45.0819 95.754 45.4129 95.164C45.7439 94.574 46.221 94.082 46.796 93.735L58.267 87.126L87.246 104.014L98.959 110.989L110.611 104.136H110.913L139.832 87.249L151.423 93.918C151.733 94.049 152.004 94.26 152.208 94.53C152.632 94.979 152.943 95.524 153.114 96.121C153.304 96.937 153.231 97.794 152.905 98.565C152.579 99.336 152.017 99.981 151.303 100.404Z" fill="white"/>
<path d="M151.419 132.086L103.494 159.926C102.16 160.665 100.663 161.052 99.142 161.052C97.622 161.052 96.125 160.665 94.791 159.926L46.806 132.086C46.229 131.747 45.75 131.261 45.417 130.676C45.083 130.09 44.908 129.427 44.908 128.751C44.908 128.076 45.083 127.413 45.417 126.827C45.75 126.242 46.229 125.756 46.806 125.417L58.2879 118.809L87.297 135.696L99.022 142.671L110.686 135.818H110.988L139.936 118.931L151.419 125.662C151.729 125.793 152 126.004 152.205 126.273C152.629 126.722 152.94 127.268 153.111 127.864C153.299 128.659 153.237 129.493 152.934 130.25C152.63 131.007 152.101 131.649 151.419 132.086Z" fill="white"/>
<path d="M248.279 178.831V31.151H305.523C341.69 31.151 365.043 51.561 365.043 83.151C365.043 116.301 340.064 137.751 301.359 137.751H277.747V178.831H248.279ZM277.747 111.426H304.677C323.606 111.426 336.291 100.051 336.291 83.151C336.291 67.941 323.606 57.736 304.677 57.736H277.747V111.426Z" fill="#111827"/>
<path d="M408.04 24.522H379.874V178.832H408.04V24.522Z" fill="#111827"/>
<path d="M476.537 181.04C468.232 180.909 460.071 178.86 452.69 175.055C445.31 171.249 438.91 165.789 433.991 159.102C429.072 152.416 425.767 144.682 424.335 136.508C422.903 128.333 423.382 119.938 425.735 111.979C428.088 104.02 432.252 96.712 437.899 90.627C443.547 84.543 450.527 79.846 458.293 76.903C466.059 73.961 474.4 72.853 482.666 73.666C490.931 74.479 498.896 77.191 505.939 81.59L507.955 82.89V75.61H536.057V178.83H507.955V171.55L505.939 172.85C497.157 178.409 486.93 181.257 476.537 181.04ZM481.611 96.54C477.695 96.64 473.839 97.519 470.267 99.125C466.696 100.732 463.48 103.034 460.809 105.896C458.138 108.759 456.065 112.125 454.711 115.797C453.357 119.47 452.75 123.375 452.924 127.285C452.785 131.161 453.421 135.026 454.794 138.653C456.167 142.281 458.249 145.599 460.92 148.413C463.591 151.227 466.796 153.481 470.349 155.043C473.901 156.605 477.73 157.444 481.611 157.51C486.653 157.676 491.659 156.607 496.194 154.398C500.729 152.189 504.655 148.906 507.63 144.835L507.955 144.51V109.8C505.015 105.578 501.064 102.159 496.463 99.854C491.861 97.549 486.755 96.432 481.611 96.605V96.54Z" fill="#111827"/>
<path d="M610.537 182.146C585.558 182.146 569.426 164.791 569.426 137.946V98.946H547.049V75.741H569.426V37.911H597.332V75.741H635.581V98.946H597.332V137.946C597.332 149.906 604.552 156.731 616.847 156.731C622.544 156.56 628.2 155.709 633.694 154.196L637.337 177.921C628.719 180.882 619.649 182.312 610.537 182.146Z" fill="#111827"/>
<path d="M667.392 178.832V98.817H639.096V75.612H667.392V59.297C667.392 31.477 685.02 12.822 711.235 12.822C719.541 12.965 727.798 14.121 735.823 16.267L732.051 40.057C727.233 39.042 722.335 38.455 717.415 38.302C714.578 38.062 711.722 38.424 709.036 39.366C706.349 40.308 703.893 41.808 701.828 43.767C699.764 45.725 698.138 48.099 697.057 50.731C695.976 53.363 695.465 56.193 695.558 59.037V75.612H735.758V98.817H695.818V178.832H667.392Z" fill="#111827"/>
<path d="M793.914 182.146C786.61 182.398 779.33 181.179 772.507 178.56C765.685 175.941 759.46 171.976 754.204 166.903C748.948 161.829 744.767 155.749 741.912 149.027C739.057 142.304 737.586 135.076 737.586 127.773C737.586 120.47 739.057 113.242 741.912 106.52C744.767 99.797 748.948 93.718 754.204 88.644C759.46 83.57 765.685 79.606 772.507 76.987C779.33 74.368 786.61 73.148 793.914 73.401C801.218 73.148 808.498 74.368 815.32 76.987C822.142 79.606 828.367 83.57 833.623 88.644C838.88 93.718 843.06 99.797 845.915 106.52C848.77 113.242 850.241 120.47 850.241 127.773C850.241 135.076 848.77 142.304 845.915 149.027C843.06 155.749 838.88 161.829 833.623 166.903C828.367 171.976 822.142 175.941 815.32 178.56C808.498 181.179 801.218 182.398 793.914 182.146ZM793.914 98.166C790.118 98.084 786.347 98.794 782.841 100.251C779.335 101.707 776.172 103.877 773.552 106.623C770.933 109.369 768.915 112.631 767.627 116.199C766.339 119.768 765.81 123.566 766.073 127.351C765.806 131.177 766.327 135.018 767.603 138.635C768.879 142.253 770.883 145.571 773.491 148.385C776.1 151.198 779.258 153.448 782.77 154.995C786.283 156.543 790.075 157.355 793.914 157.381C809.786 157.381 821.299 144.706 821.299 127.351C821.589 123.598 821.093 119.827 819.843 116.276C818.594 112.726 816.618 109.474 814.042 106.729C811.465 103.984 808.345 101.804 804.88 100.33C801.415 98.856 797.68 98.119 793.914 98.166Z" fill="#111827"/>
<path d="M864.945 178.832V75.612H893.05V89.327L895.26 87.312C904.81 78.673 917.31 74.02 930.19 74.312V100.897C923.31 100.85 916.5 102.21 910.17 104.893C903.84 107.576 898.12 111.525 893.37 116.497L893.05 116.887V179.287L864.945 178.832Z" fill="#111827"/>
<path d="M1091.12 178.832V124.687C1091.12 107.397 1082.4 97.517 1067.24 97.517C1063.02 97.708 1058.9 98.926 1055.25 101.067C1051.6 103.208 1048.53 106.206 1046.3 109.802V110.192V110.712C1046.76 114.4 1047.02 118.11 1047.08 121.827V178.637H1018.91V124.492C1018.91 106.942 1010.39 97.322 994.84 97.322C990.83 97.688 986.96 99.013 983.57 101.185C980.17 103.357 977.34 106.312 975.33 109.802V178.312H947.23V75.612H975.33V83.672L977.54 81.657C980.83 78.395 984.77 75.873 989.12 74.259C993.46 72.644 998.09 71.976 1002.72 72.297C1008.93 72.176 1015.1 73.417 1020.79 75.933C1026.47 78.448 1031.54 82.177 1035.63 86.857L1036.48 87.897L1037.45 86.987C1042.35 82.056 1048.22 78.202 1054.7 75.672C1061.17 73.142 1068.11 71.993 1075.05 72.297C1101.07 72.297 1120 93.227 1120 122.022V178.832H1091.12Z" fill="#111827"/>
</svg>
