<svg width="1568" height="195" viewBox="0 0 1568 195" fill="none" xmlns="http://www.w3.org/2000/svg">
<path d="M195 52V182C195 185.448 193.63 188.754 191.192 191.192C188.754 193.63 185.448 195 182 195H52C38.209 195 24.982 189.521 15.23 179.77C5.479 170.018 0 156.791 0 143V52C0 38.209 5.479 24.982 15.23 15.23C24.982 5.479 38.209 0 52 0H143C156.791 0 170.018 5.479 179.77 15.23C189.521 24.982 195 38.209 195 52Z" fill="#F7BF0A"/>
<path d="M149.527 136.495L129.052 116.02C133.964 108.602 136.566 99.8929 136.527 90.9949C136.527 81.9959 133.859 73.1989 128.859 65.7169C123.86 58.2349 116.753 52.4029 108.439 48.9589C100.125 45.5149 90.977 44.6139 82.151 46.3699C73.325 48.1249 65.217 52.4589 58.854 58.8219C52.491 65.1849 48.157 73.2929 46.402 82.1189C44.646 90.9449 45.547 100.093 48.991 108.407C52.435 116.722 58.266 123.828 65.749 128.827C73.231 133.827 82.028 136.495 91.027 136.495C99.925 136.534 108.634 133.932 116.052 129.02L136.527 149.495C138.251 151.219 140.589 152.188 143.027 152.188C145.465 152.188 147.803 151.219 149.527 149.495C151.251 147.771 152.22 145.433 152.22 142.995C152.22 140.557 151.251 138.219 149.527 136.495ZM119.562 106.53C116.553 112.011 112.043 116.521 106.562 119.53C101.804 122.147 96.458 123.511 91.027 123.495C84.599 123.495 78.316 121.589 72.971 118.018C67.627 114.447 63.461 109.371 61.001 103.433C58.541 97.4939 57.898 90.9589 59.152 84.6549C60.406 78.3509 63.501 72.5599 68.046 68.0149C72.592 63.4689 78.383 60.3739 84.687 59.1199C90.991 57.8659 97.526 58.5099 103.464 60.9689C109.403 63.4289 114.479 67.5949 118.05 72.9389C121.621 78.2839 123.527 84.5679 123.527 90.9949C123.543 96.4259 122.179 101.772 119.562 106.53Z" fill="white"/>
<path d="M95.646 95.6101C94.737 96.5271 93.576 97.1521 92.31 97.4061C91.044 97.6601 89.731 97.5311 88.539 97.0361C87.346 96.5411 86.328 95.7021 85.615 94.6261C84.901 93.5501 84.524 92.2861 84.531 90.9951C84.531 89.2711 83.846 87.6181 82.627 86.3991C81.408 85.1801 79.755 84.4951 78.031 84.4951C76.307 84.4951 74.654 85.1801 73.435 86.3991C72.216 87.6181 71.531 89.2711 71.531 90.9951C71.535 94.8491 72.68 98.6161 74.823 101.82C76.966 105.023 80.01 107.52 83.571 108.994C87.132 110.469 91.05 110.855 94.831 110.104C98.611 109.353 102.084 107.499 104.811 104.775C105.876 103.532 106.433 101.932 106.369 100.296C106.306 98.6601 105.628 97.1081 104.47 95.9511C103.313 94.7931 101.761 94.1151 100.125 94.0521C98.489 93.9891 96.89 94.5451 95.646 95.6101Z" fill="white"/>
<path d="M312.629 178.492C276.471 178.492 251.303 158.986 248.182 128.231H277.511C280.568 143.706 294.615 153.199 314.385 153.199C330.708 153.199 340.398 146.697 340.398 135.579C340.398 126.736 333.895 121.079 320.888 118.803L296.371 113.927C267.821 108.27 254.49 94.4211 254.49 71.2731C254.49 43.1851 277.056 24.3291 310.678 24.3291C323.684 24.3291 366.996 27.7751 371.809 71.0781H342.479C340.593 60.4801 333.765 48.5161 312.629 48.5161C295.72 48.5161 285.25 56.1241 285.25 68.3471C285.25 80.5711 296.046 84.6681 307.751 87.0731L326.286 90.8451C357.631 97.3471 371.028 109.7 371.028 132.002C371.028 160.221 348.137 178.492 312.629 178.492Z" fill="#111827"/>
<path d="M441.865 178.69C434.541 178.995 427.234 177.793 420.394 175.158C413.555 172.523 407.329 168.512 402.104 163.373C396.879 158.234 392.765 152.077 390.017 145.283C387.27 138.489 385.947 131.203 386.132 123.877C385.781 116.569 386.959 109.268 389.59 102.44C392.222 95.6131 396.249 89.4091 401.415 84.2261C406.58 79.0431 412.771 74.9941 419.59 72.3391C426.41 69.6841 433.708 68.4801 441.019 68.8051C471.324 68.8051 492.525 90.5221 492.525 121.667C492.572 124.556 492.42 127.446 492.07 130.314H413.25V131.81C414.161 138.622 417.649 144.825 422.996 149.143C428.343 153.461 435.143 155.565 441.995 155.022C445.517 155.358 449.068 154.801 452.318 153.403C455.569 152.006 458.415 149.812 460.594 147.025H490.184C484.201 166.076 464.821 178.69 441.865 178.69ZM441.214 91.6271C434.84 91.2621 428.554 93.2531 423.554 97.2221C418.553 101.191 415.187 106.86 414.096 113.149L413.706 114.775H464.821V113.279C464.723 110.269 464.02 107.31 462.754 104.578C461.488 101.846 459.684 99.3961 457.451 97.3761C455.217 95.3551 452.6 93.8051 449.755 92.8171C446.909 91.8301 443.894 91.4251 440.889 91.6271H441.214Z" fill="#111827"/>
<path d="M555.676 177.584C541.721 177.276 528.458 171.451 518.791 161.384C509.125 151.317 503.843 137.83 504.105 123.877C503.844 116.922 504.981 109.985 507.45 103.477C509.919 96.97 513.669 91.024 518.478 85.991C523.286 80.959 529.057 76.943 535.446 74.18C541.836 71.418 548.715 69.966 555.676 69.91C566.023 69.715 576.199 72.564 584.94 78.102L586.956 79.403V72.121H615.116V175.373H587.022V168.091L585.006 169.391C576.246 174.942 566.045 177.792 555.676 177.584ZM560.748 93.057C556.828 93.148 552.966 94.021 549.388 95.624C545.809 97.228 542.587 99.529 539.91 102.393C537.233 105.258 535.155 108.628 533.797 112.305C532.439 115.983 531.83 119.895 532.004 123.812C531.865 127.694 532.503 131.565 533.879 135.198C535.256 138.831 537.344 142.153 540.021 144.969C542.698 147.785 545.91 150.038 549.469 151.597C553.029 153.155 556.863 153.988 560.748 154.046C565.788 154.2 570.789 153.127 575.321 150.918C579.852 148.709 583.779 145.431 586.761 141.367V141.042V106.386V106.061C583.831 101.924 579.922 98.577 575.383 96.32C570.844 94.062 565.816 92.963 560.748 93.122V93.057Z" fill="#111827"/>
<path d="M638.312 175.374V72.1221H666.472V85.8411L668.618 83.8261C678.136 75.0561 690.664 70.2831 703.605 70.4961V97.0901C696.729 97.0351 689.914 98.3921 683.583 101.076C677.251 103.76 671.538 107.715 666.797 112.695V113.085V175.504L638.312 175.374Z" fill="#111827"/>
<path d="M766.177 177.845C759.089 177.845 752.07 176.449 745.521 173.737C738.972 171.025 733.022 167.049 728.01 162.038C722.997 157.027 719.022 151.078 716.309 144.53C713.596 137.983 712.2 130.965 712.2 123.878C712.2 116.791 713.596 109.773 716.309 103.226C719.022 96.6779 722.997 90.7289 728.01 85.7179C733.022 80.7059 738.972 76.7309 745.521 74.0189C752.07 71.3069 759.089 69.9109 766.177 69.9109C793.231 69.9109 814.301 86.8159 818.203 111.264H789.979C788.552 106.206 785.44 101.786 781.16 98.7359C776.879 95.6859 771.685 94.1879 766.437 94.4889C762.636 94.4549 758.869 95.2029 755.369 96.6879C751.87 98.1729 748.713 100.361 746.096 103.118C743.479 105.875 741.458 109.141 740.158 112.712C738.857 116.283 738.306 120.084 738.538 123.878C738.274 127.666 738.805 131.468 740.097 135.039C741.389 138.611 743.414 141.872 746.041 144.615C748.668 147.358 751.839 149.521 755.352 150.967C758.864 152.412 762.64 153.107 766.437 153.007C771.674 153.393 776.882 151.951 781.175 148.928C785.468 145.904 788.579 141.487 789.979 136.427H818.203C814.301 160.874 793.036 177.845 766.177 177.845Z" fill="#111827"/>
<path d="M911.84 175.364V121.202C911.84 103.907 903.06 94.024 887.782 94.024C882.985 94.414 878.331 95.843 874.142 98.212C869.953 100.581 866.33 103.833 863.525 107.743L863.199 108.133V175.364H835.105V20.811H863.199V80.824L865.346 79.134C873.626 72.278 884.054 68.55 894.81 68.601C922.25 68.601 939.94 88.107 939.94 118.341V175.169L911.84 175.364Z" fill="#111827"/>
<path d="M1077.02 175.369L1065.32 146.435H995.47L983.7 175.369H952.55L1016.22 26.7981H1044.5L1107.98 175.369H1077.02ZM1006.14 120.037H1054.65L1030.13 60.2831L1006.14 120.037Z" fill="#111827"/>
<path d="M1159.93 178.681C1143.09 178.681 1114.41 173.805 1111.35 141.295H1136.98C1139.06 151.698 1146.86 157.03 1160.13 157.03C1171.83 157.03 1179.64 152.933 1179.64 146.626C1179.64 141.555 1175.35 137.849 1168.13 136.743L1145.37 132.777C1134.12 130.761 1115.26 124.194 1115.26 102.868C1115.26 81.5411 1132.3 69.0571 1159.74 69.0571C1172.75 69.0571 1202.73 72.3081 1205.85 102.478H1180.35C1179.12 94.1551 1171.57 89.4741 1159.74 89.4741C1147.9 89.4741 1142.77 95.0651 1142.77 99.8121C1142.77 103.128 1144.52 108.915 1156.42 111.06L1175.93 114.181C1196.74 117.887 1206.89 127.705 1206.89 144.026C1206.37 165.482 1188.61 178.681 1159.93 178.681Z" fill="#111827"/>
<path d="M1265.87 178.681C1248.97 178.681 1220.35 173.805 1217.29 141.295H1242.85C1244.93 151.698 1252.74 157.03 1266.07 157.03C1277.71 157.03 1285.25 152.933 1285.25 146.626C1285.25 141.555 1280.96 137.849 1273.81 136.743L1251.05 132.777C1239.8 130.761 1220.94 124.194 1220.94 102.868C1220.94 81.5411 1237.98 69.0571 1265.42 69.0571C1278.43 69.0571 1308.41 72.3081 1311.53 102.478H1286.03C1284.8 94.1551 1277.19 89.4741 1265.42 89.4741C1253.65 89.4741 1248.38 95.0651 1248.38 99.8121C1248.38 103.128 1250.2 108.915 1262.1 111.06L1281.61 114.181C1302.42 117.887 1312.57 127.705 1312.57 144.026C1312.31 165.482 1294.49 178.681 1265.87 178.681Z" fill="#111827"/>
<path d="M1331.5 175.369V72.1159H1359.66V175.369H1331.5ZM1345.81 49.8149C1343.58 49.9289 1341.36 49.5899 1339.27 48.8189C1337.18 48.0479 1335.26 46.8599 1333.65 45.3279C1332.03 43.7959 1330.74 41.9509 1329.86 39.9059C1328.97 37.8609 1328.51 35.6569 1328.51 33.4289C1328.51 28.8769 1330.32 24.5109 1333.54 21.2919C1336.76 18.0729 1341.12 16.2639 1345.68 16.2639C1350.23 16.2639 1354.6 18.0729 1357.82 21.2919C1361.04 24.5109 1362.85 28.8769 1362.85 33.4289C1362.85 35.6369 1362.4 37.8219 1361.54 39.8539C1360.68 41.8849 1359.41 43.7209 1357.82 45.2519C1356.23 46.7819 1354.34 47.9749 1352.28 48.7589C1350.21 49.5429 1348.01 49.9019 1345.81 49.8149Z" fill="#111827"/>
<path d="M1424.81 178.681C1407.97 178.681 1379.29 173.805 1376.3 141.295H1401.86C1403.94 151.698 1411.74 157.03 1425.01 157.03C1436.72 157.03 1444.52 152.933 1444.52 146.626C1444.52 141.555 1440.23 137.849 1433.01 136.743L1410.25 132.777C1399.06 130.761 1380.2 124.194 1380.2 102.868C1380.2 81.5411 1397.24 69.0571 1424.62 69.0571C1437.63 69.0571 1467.61 72.3081 1470.73 102.478H1445.23C1444.06 94.1551 1436.45 89.4741 1424.62 89.4741C1412.78 89.4741 1407.65 95.0651 1407.65 99.8121C1407.65 103.128 1409.4 108.915 1421.3 111.06L1440.81 114.181C1461.69 117.887 1471.77 127.705 1471.77 144.026C1471.25 165.482 1453.49 178.681 1424.81 178.681Z" fill="#111827"/>
<path d="M1540.9 178.687C1515.86 178.687 1499.73 161.326 1499.73 134.473V95.4609H1477.43V72.1179H1499.73V34.2759H1527.63V72.1179H1565.87V95.3309H1527.63V134.343C1527.63 146.307 1534.85 153.134 1547.53 153.134C1553.23 152.956 1558.88 152.105 1564.38 150.598L1567.95 174.33C1559.26 177.366 1550.1 178.841 1540.9 178.687Z" fill="#111827"/>
</svg>
