<svg width="195" height="195" viewBox="0 0 195 195" fill="none" xmlns="http://www.w3.org/2000/svg">
<path d="M195 52V182C195 185.448 193.63 188.754 191.192 191.192C188.754 193.63 185.448 195 182 195H52C38.209 195 24.982 189.521 15.23 179.77C5.479 170.018 0 156.791 0 143V52C0 38.209 5.479 24.982 15.23 15.23C24.982 5.479 38.209 0 52 0H143C156.791 0 170.018 5.479 179.77 15.23C189.521 24.982 195 38.209 195 52Z" fill="#F7BF0A"/>
<path d="M149.527 136.495L129.052 116.02C133.964 108.602 136.566 99.8929 136.527 90.9949C136.527 81.9959 133.859 73.1989 128.859 65.7169C123.86 58.2349 116.753 52.4029 108.439 48.9589C100.125 45.5149 90.977 44.6139 82.151 46.3699C73.325 48.1249 65.217 52.4589 58.854 58.8219C52.491 65.1849 48.157 73.2929 46.402 82.1189C44.646 90.9449 45.547 100.093 48.991 108.407C52.435 116.722 58.266 123.828 65.749 128.827C73.231 133.827 82.028 136.495 91.027 136.495C99.925 136.534 108.634 133.932 116.052 129.02L136.527 149.495C138.251 151.219 140.589 152.188 143.027 152.188C145.465 152.188 147.803 151.219 149.527 149.495C151.251 147.771 152.22 145.433 152.22 142.995C152.22 140.557 151.251 138.219 149.527 136.495ZM119.562 106.53C116.553 112.011 112.043 116.521 106.562 119.53C101.804 122.147 96.458 123.511 91.027 123.495C84.599 123.495 78.316 121.589 72.971 118.018C67.627 114.447 63.461 109.371 61.001 103.433C58.541 97.4939 57.898 90.9589 59.152 84.6549C60.406 78.3509 63.501 72.5599 68.046 68.0149C72.592 63.4689 78.383 60.3739 84.687 59.1199C90.991 57.8659 97.526 58.5099 103.464 60.9689C109.403 63.4289 114.479 67.5949 118.05 72.9389C121.621 78.2839 123.527 84.5679 123.527 90.9949C123.543 96.4259 122.179 101.772 119.562 106.53Z" fill="white"/>
<path d="M95.646 95.6101C94.737 96.5271 93.576 97.1521 92.31 97.4061C91.044 97.6601 89.731 97.5311 88.539 97.0361C87.346 96.5411 86.328 95.7021 85.615 94.6261C84.901 93.5501 84.524 92.2861 84.531 90.9951C84.531 89.2711 83.846 87.6181 82.627 86.3991C81.408 85.1801 79.755 84.4951 78.031 84.4951C76.307 84.4951 74.654 85.1801 73.435 86.3991C72.216 87.6181 71.531 89.2711 71.531 90.9951C71.535 94.8491 72.68 98.6161 74.823 101.82C76.966 105.023 80.01 107.52 83.571 108.994C87.132 110.469 91.05 110.855 94.831 110.104C98.611 109.353 102.084 107.499 104.811 104.775C105.876 103.532 106.433 101.932 106.369 100.296C106.306 98.6601 105.628 97.1081 104.47 95.9511C103.313 94.7931 101.761 94.1151 100.125 94.0521C98.489 93.9891 96.89 94.5451 95.646 95.6101Z" fill="white"/>
</svg>
