<svg width="1532" height="195" viewBox="0 0 1532 195" fill="none" xmlns="http://www.w3.org/2000/svg">
<path d="M195 52V182C195 185.448 193.63 188.754 191.192 191.192C188.754 193.63 185.448 195 182 195H52C38.209 195 24.982 189.521 15.23 179.77C5.479 170.018 0 156.791 0 143V52C0 38.209 5.479 24.982 15.23 15.23C24.982 5.479 38.209 0 52 0H143C156.791 0 170.018 5.479 179.77 15.23C189.521 24.982 195 38.209 195 52Z" fill="#1B92D8"/>
<path d="M103.409 52.127C103.409 47.814 100.102 44.318 96.023 44.318C91.944 44.318 88.637 47.814 88.637 52.127V145.828C88.637 150.14 91.944 153.636 96.023 153.636C100.102 153.636 103.409 150.14 103.409 145.828V52.127Z" fill="white"/>
<path d="M135.909 81.742C135.909 77.391 131.941 73.864 127.045 73.864C122.15 73.864 118.182 77.391 118.182 81.742V113.258C118.182 117.609 122.15 121.136 127.045 121.136C131.941 121.136 135.909 117.609 135.909 113.258V81.742Z" fill="white"/>
<path d="M76.8181 81.742C76.8181 77.391 72.8501 73.864 67.9541 73.864C63.0591 73.864 59.0911 77.391 59.0911 81.742V113.258C59.0911 117.609 63.0591 121.136 67.9541 121.136C72.8501 121.136 76.8181 117.609 76.8181 113.258V81.742Z" fill="white"/>
<path d="M158.068 106.364C162.147 106.364 165.454 103.057 165.454 98.9771C165.454 94.8981 162.147 91.5911 158.068 91.5911C153.989 91.5911 150.682 94.8981 150.682 98.9771C150.682 103.057 153.989 106.364 158.068 106.364Z" fill="white"/>
<path d="M36.932 106.364C41.012 106.364 44.319 103.057 44.319 98.9771C44.319 94.8981 41.012 91.5911 36.932 91.5911C32.853 91.5911 29.546 94.8981 29.546 98.9771C29.546 103.057 32.853 106.364 36.932 106.364Z" fill="white"/>
<path d="M314.466 180.815C277.277 180.815 251.392 160.753 248.182 129.122H278.347C281.491 145.038 295.938 154.801 316.272 154.801C333.06 154.801 343.026 148.114 343.026 136.679C343.026 127.584 336.338 121.766 322.96 119.425L297.744 114.41C268.381 108.592 254.67 94.3481 254.67 70.5411C254.67 41.6511 277.879 22.2581 312.459 22.2581C325.837 22.2581 370.383 25.8021 375.332 70.3401H345.167C343.227 59.4401 336.204 47.1351 314.466 47.1351C297.075 47.1351 286.307 54.9591 286.307 67.5311C286.307 80.1041 297.41 84.3171 309.449 86.7911L328.512 90.6701C360.751 97.3571 374.53 110.063 374.53 133.001C374.53 162.024 350.986 180.815 314.466 180.815Z" fill="#111827"/>
<path d="M541.884 177.606V121.9C541.884 104.112 532.921 93.947 517.337 93.947C512.989 94.143 508.755 95.397 505.002 97.6C501.249 99.802 498.09 102.887 495.799 106.586V106.987V107.522C496.337 111.378 496.627 115.265 496.669 119.158V177.606H467.439V121.9C467.439 103.844 458.611 93.947 442.692 93.947C438.558 94.308 434.574 95.664 431.08 97.9C427.585 100.136 424.684 103.185 422.626 106.786V107.121V177.606H393.129V71.41H422.091V79.703L424.298 77.63C427.703 74.29 431.774 71.706 436.246 70.047C440.718 68.387 445.49 67.69 450.25 68C456.577 67.926 462.844 69.227 468.619 71.813C474.393 74.4 479.536 78.21 483.693 82.979L484.562 84.049L485.633 83.113C490.665 78.037 496.705 74.069 503.363 71.467C510.021 68.864 517.151 67.683 524.293 68C551.047 68 570.444 89.533 570.444 119.158V177.606H541.884Z" fill="#111827"/>
<path d="M640.607 179.879C626.301 179.494 612.728 173.472 602.843 163.126C592.959 152.779 587.564 138.947 587.834 124.642C587.565 117.488 588.735 110.354 591.274 103.661C593.813 96.968 597.67 90.852 602.616 85.676C607.562 80.501 613.496 76.3701 620.068 73.5291C626.64 70.6881 633.715 69.194 640.874 69.137C651.539 68.923 662.031 71.853 671.04 77.563L673.114 78.9V71.41H701.54V177.606H672.578V170.116L670.505 171.453C661.572 177.112 651.181 180.041 640.607 179.879ZM645.824 92.944C641.792 93.037 637.82 93.935 634.139 95.584C630.459 97.233 627.145 99.6001 624.392 102.546C621.638 105.492 619.501 108.958 618.104 112.741C616.708 116.523 616.081 120.547 616.26 124.575C616.117 128.568 616.773 132.549 618.189 136.286C619.605 140.022 621.752 143.439 624.506 146.335C627.259 149.231 630.563 151.548 634.223 153.152C637.884 154.755 641.828 155.611 645.824 155.671C651.007 155.83 656.151 154.725 660.812 152.453C665.473 150.182 669.511 146.811 672.578 142.631V142.296V106.586V106.252C669.558 102.009 665.534 98.58 660.865 96.269C656.197 93.959 651.03 92.84 645.824 93.011V92.944Z" fill="#111827"/>
<path d="M725.615 177.605V71.41H754.577V85.52L756.784 83.447C766.573 74.427 779.458 69.518 792.769 69.738V97.089C785.696 97.033 778.687 98.428 772.176 101.189C765.664 103.95 759.788 108.017 754.911 113.139V113.54V177.739L725.615 177.605Z" fill="#111827"/>
<path d="M864.341 181.017C838.657 181.017 822.069 163.162 822.069 135.543V95.419H799.061V71.545H821.936V32.624H850.63V71.545H889.959V95.419H850.63V135.543C850.63 147.848 858.054 154.869 871.03 154.869C876.888 154.693 882.704 153.817 888.354 152.261L892.03 176.67C883.131 179.74 873.756 181.212 864.341 181.017Z" fill="#111827"/>
<path d="M1027.61 177.606L1015.57 147.847H943.73L931.7 177.606H899.59L965.07 24.799H994.23L1059.51 177.606H1027.61ZM954.7 120.696H1004.6L979.39 59.239L954.7 120.696Z" fill="#111827"/>
<path d="M1112.89 181.016C1095.57 181.016 1066.07 176.001 1062.99 142.564H1089.28C1091.42 153.264 1099.45 158.747 1113.16 158.747C1125.13 158.747 1133.22 154.534 1133.22 148.048C1133.22 142.832 1128.81 139.02 1121.45 137.883L1098.04 133.804C1086.47 131.73 1067.07 124.976 1067.07 103.042C1067.07 81.1071 1084.6 68.2681 1112.82 68.2681C1126.2 68.2681 1157.04 71.6111 1160.25 102.64H1134.03C1132.76 94.0811 1124.93 89.2661 1112.82 89.2661C1100.72 89.2661 1095.3 95.0171 1095.3 99.8991C1095.3 103.309 1097.17 109.261 1109.35 111.468L1129.41 114.678C1150.81 118.489 1161.25 128.587 1161.25 145.373C1160.71 167.441 1142.39 181.016 1112.89 181.016Z" fill="#111827"/>
<path d="M1221.85 181.016C1204.52 181.016 1175.03 176.001 1171.88 142.564H1198.24C1200.38 153.264 1208.4 158.747 1222.05 158.747C1234.09 158.747 1242.11 154.534 1242.11 148.048C1242.11 142.832 1237.7 139.02 1230.28 137.883L1206.87 133.804C1195.29 131.73 1175.9 124.976 1175.9 103.042C1175.9 81.1071 1193.42 68.2681 1221.65 68.2681C1235.02 68.2681 1265.86 71.6111 1269.07 102.64H1242.85C1241.65 94.0811 1233.82 89.2661 1221.65 89.2661C1209.47 89.2661 1204.19 95.0171 1204.19 99.8991C1204.19 103.309 1206 109.261 1218.24 111.468L1238.3 114.678C1259.71 118.489 1270.14 128.587 1270.14 145.373C1269.6 167.441 1251.34 181.016 1221.85 181.016Z" fill="#111827"/>
<path d="M1289.33 177.606V71.4111H1318.29V177.606H1289.33ZM1303.51 48.4731C1301.22 48.5811 1298.94 48.2261 1296.79 47.4291C1294.65 46.6331 1292.69 45.4111 1291.02 43.8371C1289.36 42.2631 1288.04 40.3701 1287.12 38.2701C1286.21 36.1711 1285.73 33.9091 1285.72 31.6211C1285.72 26.9381 1287.58 22.4481 1290.89 19.1371C1294.2 15.8261 1298.69 13.9661 1303.38 13.9661C1308.06 13.9661 1312.55 15.8261 1315.86 19.1371C1319.17 22.4481 1321.03 26.9381 1321.03 31.6211C1321.04 33.8911 1320.58 36.1391 1319.69 38.2281C1318.8 40.3171 1317.5 42.2061 1315.86 43.7801C1314.23 45.3541 1312.29 46.5811 1310.17 47.3871C1308.04 48.1941 1305.78 48.5631 1303.51 48.4731Z" fill="#111827"/>
<path d="M1385.39 181.016C1368 181.016 1338.57 176.001 1335.42 142.564H1361.71C1363.85 153.264 1371.87 158.747 1385.59 158.747C1397.56 158.747 1405.32 154.534 1405.32 148.048C1405.32 142.832 1400.9 139.02 1393.55 137.883L1370.14 133.804C1358.56 131.73 1339.17 124.976 1339.17 103.042C1339.17 81.1071 1356.69 68.2681 1384.92 68.2681C1398.29 68.2681 1429.13 71.6111 1432.34 102.64H1406.12C1404.85 94.0811 1397.02 89.2661 1384.92 89.2661C1372.81 89.2661 1367.39 95.0171 1367.39 99.8991C1367.39 103.309 1369.27 109.261 1381.51 111.468L1401.57 114.678C1422.98 118.489 1433.41 128.587 1433.41 145.373C1433.14 167.441 1414.82 181.016 1385.39 181.016Z" fill="#111827"/>
<path d="M1504.51 181.017C1478.82 181.017 1462.17 163.162 1462.17 135.543V95.419H1439.23V71.545H1462.17V32.624H1490.79V71.545H1530.12V95.419H1490.79V135.543C1490.79 147.848 1498.22 154.869 1510.86 154.869C1516.72 154.693 1522.53 153.817 1528.18 152.261L1531.86 176.67C1523.07 179.693 1513.81 181.164 1504.51 181.017Z" fill="#111827"/>
</svg>
