<svg width="195" height="195" viewBox="0 0 195 195" fill="none" xmlns="http://www.w3.org/2000/svg">
<path d="M195 52V182C195 185.448 193.63 188.754 191.192 191.192C188.754 193.63 185.448 195 182 195H52C38.209 195 24.982 189.521 15.23 179.77C5.479 170.018 0 156.791 0 143V52C0 38.209 5.479 24.982 15.23 15.23C24.982 5.479 38.209 0 52 0H143C156.791 0 170.018 5.479 179.77 15.23C189.521 24.982 195 38.209 195 52Z" fill="#1B92D8"/>
<path d="M103.409 52.1269C103.409 47.8139 100.102 44.3179 96.023 44.3179C91.944 44.3179 88.637 47.8139 88.637 52.1269V145.828C88.637 150.14 91.944 153.636 96.023 153.636C100.102 153.636 103.409 150.14 103.409 145.828V52.1269Z" fill="white"/>
<path d="M135.909 81.742C135.909 77.391 131.941 73.864 127.045 73.864C122.15 73.864 118.182 77.391 118.182 81.742V113.258C118.182 117.609 122.15 121.136 127.045 121.136C131.941 121.136 135.909 117.609 135.909 113.258V81.742Z" fill="white"/>
<path d="M76.8181 81.742C76.8181 77.391 72.8501 73.864 67.9541 73.864C63.0591 73.864 59.0911 77.391 59.0911 81.742V113.258C59.0911 117.609 63.0591 121.136 67.9541 121.136C72.8501 121.136 76.8181 117.609 76.8181 113.258V81.742Z" fill="white"/>
<path d="M158.068 106.364C162.147 106.364 165.454 103.057 165.454 98.9771C165.454 94.8981 162.147 91.5911 158.068 91.5911C153.989 91.5911 150.682 94.8981 150.682 98.9771C150.682 103.057 153.989 106.364 158.068 106.364Z" fill="white"/>
<path d="M36.932 106.364C41.012 106.364 44.319 103.057 44.319 98.9771C44.319 94.8981 41.012 91.5911 36.932 91.5911C32.853 91.5911 29.546 94.8981 29.546 98.9771C29.546 103.057 32.853 106.364 36.932 106.364Z" fill="white"/>
</svg>
