<svg width="20" height="20" viewBox="0 0 20 20" fill="none" xmlns="http://www.w3.org/2000/svg">
<g id="file-search-01">
<path id="Icon" d="M16.6654 8.75008V5.66675C16.6654 4.26662 16.6654 3.56655 16.3929 3.03177C16.1532 2.56137 15.7707 2.17892 15.3003 1.93923C14.7656 1.66675 14.0655 1.66675 12.6654 1.66675H7.33203C5.9319 1.66675 5.23183 1.66675 4.69706 1.93923C4.22665 2.17892 3.8442 2.56137 3.60451 3.03177C3.33203 3.56655 3.33203 4.26662 3.33203 5.66675V14.3334C3.33203 15.7335 3.33203 16.4336 3.60451 16.9684C3.8442 17.4388 4.22665 17.8212 4.69706 18.0609C5.23183 18.3334 5.9319 18.3334 7.33203 18.3334H9.58203M18.332 18.3334L17.082 17.0834M17.9154 15.0001C17.9154 16.6109 16.6095 17.9167 14.9987 17.9167C13.3879 17.9167 12.082 16.6109 12.082 15.0001C12.082 13.3893 13.3879 12.0834 14.9987 12.0834C16.6095 12.0834 17.9154 13.3893 17.9154 15.0001Z" stroke="#667085" stroke-width="1.2" stroke-linecap="round" stroke-linejoin="round"/>
</g>
</svg>
