<svg width="20" height="20" viewBox="0 0 20 20" fill="none" xmlns="http://www.w3.org/2000/svg">
<g id="data">
<g id="Icon">
<path d="M17.668 18.3334C17.9013 18.3334 18.018 18.3334 18.1071 18.288C18.1855 18.2481 18.2493 18.1843 18.2892 18.1059C18.3346 18.0168 18.3346 17.9001 18.3346 17.6667V9.00008C18.3346 8.76673 18.3346 8.65005 18.2892 8.56092C18.2493 8.48252 18.1855 8.41878 18.1071 8.37883C18.018 8.33342 17.9013 8.33342 17.668 8.33342L15.668 8.33342C15.4346 8.33342 15.3179 8.33342 15.2288 8.37883C15.1504 8.41878 15.0867 8.48252 15.0467 8.56092C15.0013 8.65005 15.0013 8.76673 15.0013 9.00008V11.0001C15.0013 11.2334 15.0013 11.3501 14.9559 11.4392C14.9159 11.5176 14.8522 11.5814 14.7738 11.6213C14.6847 11.6667 14.568 11.6667 14.3346 11.6667H12.3346C12.1013 11.6667 11.9846 11.6667 11.8955 11.7122C11.8171 11.7521 11.7533 11.8159 11.7134 11.8943C11.668 11.9834 11.668 12.1001 11.668 12.3334V14.3334C11.668 14.5668 11.668 14.6834 11.6226 14.7726C11.5826 14.851 11.5189 14.9147 11.4405 14.9547C11.3513 15.0001 11.2347 15.0001 11.0013 15.0001H9.0013C8.76795 15.0001 8.65127 15.0001 8.56214 15.0455C8.48374 15.0854 8.42 15.1492 8.38005 15.2276C8.33464 15.3167 8.33464 15.4334 8.33464 15.6667V17.6667C8.33464 17.9001 8.33464 18.0168 8.38005 18.1059C8.42 18.1843 8.48374 18.2481 8.56214 18.288C8.65127 18.3334 8.76795 18.3334 9.0013 18.3334L17.668 18.3334Z" stroke="#667085" stroke-width="1.2" stroke-linecap="round" stroke-linejoin="round"/>
<path d="M8.33464 5.66675C8.33464 5.43339 8.33464 5.31672 8.38005 5.22759C8.42 5.14918 8.48374 5.08544 8.56214 5.0455C8.65127 5.00008 8.76795 5.00008 9.0013 5.00008H11.0013C11.2347 5.00008 11.3513 5.00008 11.4405 5.0455C11.5189 5.08544 11.5826 5.14918 11.6226 5.22759C11.668 5.31672 11.668 5.43339 11.668 5.66675V7.66675C11.668 7.9001 11.668 8.01678 11.6226 8.10591C11.5826 8.18431 11.5189 8.24805 11.4405 8.288C11.3513 8.33342 11.2347 8.33342 11.0013 8.33342H9.0013C8.76795 8.33342 8.65127 8.33342 8.56214 8.288C8.48374 8.24805 8.42 8.18431 8.38005 8.10591C8.33464 8.01678 8.33464 7.9001 8.33464 7.66675V5.66675Z" stroke="#667085" stroke-width="1.2" stroke-linecap="round" stroke-linejoin="round"/>
<path d="M2.5013 10.6667C2.5013 10.4334 2.5013 10.3167 2.54672 10.2276C2.58666 10.1492 2.65041 10.0854 2.72881 10.0455C2.81794 10.0001 2.93461 10.0001 3.16797 10.0001H5.16797C5.40132 10.0001 5.518 10.0001 5.60713 10.0455C5.68553 10.0854 5.74927 10.1492 5.78922 10.2276C5.83464 10.3167 5.83464 10.4334 5.83464 10.6667V12.6667C5.83464 12.9001 5.83464 13.0168 5.78922 13.1059C5.74927 13.1843 5.68553 13.2481 5.60713 13.288C5.518 13.3334 5.40132 13.3334 5.16797 13.3334H3.16797C2.93461 13.3334 2.81794 13.3334 2.72881 13.288C2.65041 13.2481 2.58666 13.1843 2.54672 13.1059C2.5013 13.0168 2.5013 12.9001 2.5013 12.6667V10.6667Z" stroke="#667085" stroke-width="1.2" stroke-linecap="round" stroke-linejoin="round"/>
<path d="M1.66797 2.33341C1.66797 2.10006 1.66797 1.98338 1.71338 1.89425C1.75333 1.81585 1.81707 1.75211 1.89547 1.71216C1.9846 1.66675 2.10128 1.66675 2.33464 1.66675H4.33464C4.56799 1.66675 4.68467 1.66675 4.7738 1.71216C4.8522 1.75211 4.91594 1.81585 4.95589 1.89425C5.0013 1.98338 5.0013 2.10006 5.0013 2.33341V4.33341C5.0013 4.56677 5.0013 4.68345 4.95589 4.77258C4.91594 4.85098 4.8522 4.91472 4.7738 4.95467C4.68467 5.00008 4.56799 5.00008 4.33464 5.00008H2.33464C2.10128 5.00008 1.9846 5.00008 1.89547 4.95467C1.81707 4.91472 1.75333 4.85098 1.71338 4.77258C1.66797 4.68345 1.66797 4.56677 1.66797 4.33341V2.33341Z" stroke="#667085" stroke-width="1.2" stroke-linecap="round" stroke-linejoin="round"/>
</g>
</g>
</svg>
