<svg width="186" height="185" viewBox="0 0 186 185" fill="none" xmlns="http://www.w3.org/2000/svg">
<path d="M158.921 59.1107C145.996 46.1712 128.458 38.8813 110.156 38.8414C91.8534 38.8014 74.2831 46.0146 61.3014 58.8977C69.9895 50.3933 81.6829 45.649 93.849 45.6923C106.015 45.7356 117.674 50.5629 126.302 59.1289C134.929 67.6949 139.83 79.3098 139.942 91.4581C140.055 103.606 135.371 115.31 126.904 124.034V124.034L126.84 124.098L126.531 124.418L126.029 124.908C113.08 137.888 95.4969 145.2 77.1486 145.235C58.8003 145.27 41.1895 138.025 28.1906 125.094C15.1916 112.163 7.86915 94.6054 7.83414 76.2832C7.79912 57.9609 15.0544 40.3752 28.0039 27.3947C10.7223 44.6304 1.00526 68.0156 0.990252 92.4056C0.975246 116.796 10.6635 140.193 27.9238 157.45C45.1841 174.707 68.6025 184.41 93.0273 184.425C117.452 184.44 140.882 174.765 158.164 157.53C158.281 157.423 158.399 157.317 158.505 157.199L158.932 156.784L159.071 156.635C159.263 156.454 159.444 156.262 159.626 156.07L159.871 155.825C172.421 142.788 179.352 125.357 179.174 107.274C178.997 89.1914 171.725 71.8992 158.921 59.1107V59.1107Z" fill="url(#paint0_linear_2258_10295)"/>
<path d="M135.52 10.3097C118.312 1.4959 98.764 -1.68714 79.6443 1.21164C60.5245 4.11043 42.8031 12.944 28.9911 26.4607L28.6817 26.7697L28.3617 27.0893L27.7429 27.7072C14.8245 40.7202 7.61203 58.3247 7.69207 76.6479C7.7721 94.9712 15.1381 112.512 28.1696 125.412C41.2011 138.312 58.8307 145.514 77.18 145.434C95.5294 145.355 113.095 137.999 126.014 124.986C117.313 133.598 105.547 138.412 93.2965 138.372C81.046 138.332 69.3116 133.441 60.6676 124.773C52.0236 116.104 47.1757 104.366 47.1876 92.1328C47.1995 79.8997 52.0701 68.1708 60.731 59.5191L61.019 59.2421C74.0219 46.6872 91.4318 39.7171 109.519 39.8251C127.606 39.9331 144.931 47.1107 157.783 59.82C170.634 72.5293 177.99 89.7594 178.273 107.819C178.557 125.878 171.747 143.33 159.301 156.436C169.379 146.135 176.896 133.615 181.245 119.884C185.594 106.153 186.655 91.5944 184.342 77.3795C182.028 63.1645 176.406 49.6903 167.926 38.0412C159.446 26.3921 148.346 16.8935 135.52 10.3097Z" fill="#17A674"/>
<path d="M135.52 10.3097C118.312 1.4959 98.764 -1.68714 79.6443 1.21164C60.5245 4.11043 42.8031 12.944 28.9911 26.4607L28.6817 26.7697L28.3617 27.0893L27.7429 27.7072C14.8245 40.7202 7.61203 58.3247 7.69207 76.6479C7.7721 94.9712 15.1381 112.512 28.1696 125.412C41.2011 138.312 58.8307 145.514 77.18 145.434C95.5294 145.355 113.095 137.999 126.014 124.986C117.313 133.598 105.547 138.412 93.2965 138.372C81.046 138.332 69.3116 133.441 60.6676 124.773C52.0236 116.104 47.1757 104.366 47.1876 92.1328C47.1995 79.8997 52.0701 68.1708 60.731 59.5191L61.019 59.2421C74.0219 46.6872 91.4318 39.7171 109.519 39.8251C127.606 39.9331 144.931 47.1107 157.783 59.82C170.634 72.5293 177.99 89.7594 178.273 107.819C178.557 125.878 171.747 143.33 159.301 156.436C169.379 146.135 176.896 133.615 181.245 119.884C185.594 106.153 186.655 91.5944 184.342 77.3795C182.028 63.1645 176.406 49.6903 167.926 38.0412C159.446 26.3921 148.346 16.8935 135.52 10.3097Z" fill="url(#paint1_linear_2258_10295)"/>
<path d="M135.52 10.3097C118.312 1.4959 98.764 -1.68714 79.6443 1.21164C60.5245 4.11043 42.8031 12.944 28.9911 26.4607L28.6817 26.7697L28.3617 27.0893L27.7429 27.7072C14.8245 40.7202 7.61203 58.3247 7.69207 76.6479C7.7721 94.9712 15.1381 112.512 28.1696 125.412C41.2011 138.312 58.8307 145.514 77.18 145.434C95.5294 145.355 113.095 137.999 126.014 124.986C117.313 133.598 105.547 138.412 93.2965 138.372C81.046 138.332 69.3116 133.441 60.6676 124.773C52.0236 116.104 47.1757 104.366 47.1876 92.1328C47.1995 79.8997 52.0701 68.1708 60.731 59.5191L61.019 59.2421C74.0219 46.6872 91.4318 39.7171 109.519 39.8251C127.606 39.9331 144.931 47.1107 157.783 59.82C170.634 72.5293 177.99 89.7594 178.273 107.819C178.557 125.878 171.747 143.33 159.301 156.436C169.379 146.135 176.896 133.615 181.245 119.884C185.594 106.153 186.655 91.5944 184.342 77.3795C182.028 63.1645 176.406 49.6903 167.926 38.0412C159.446 26.3921 148.346 16.8935 135.52 10.3097Z" fill="url(#paint2_linear_2258_10295)"/>
<path d="M135.52 10.3097C118.312 1.4959 98.764 -1.68714 79.6443 1.21164C60.5245 4.11043 42.8031 12.944 28.9911 26.4607L28.6817 26.7697L28.3617 27.0893L27.7429 27.7072C14.8245 40.7202 7.61203 58.3247 7.69207 76.6479C7.7721 94.9712 15.1381 112.512 28.1696 125.412C41.2011 138.312 58.8307 145.514 77.18 145.434C95.5294 145.355 113.095 137.999 126.014 124.986C117.313 133.598 105.547 138.412 93.2965 138.372C81.046 138.332 69.3116 133.441 60.6676 124.773C52.0236 116.104 47.1757 104.366 47.1876 92.1328C47.1995 79.8997 52.0701 68.1708 60.731 59.5191L61.019 59.2421C74.0219 46.6872 91.4318 39.7171 109.519 39.8251C127.606 39.9331 144.931 47.1107 157.783 59.82C170.634 72.5293 177.99 89.7594 178.273 107.819C178.557 125.878 171.747 143.33 159.301 156.436C169.379 146.135 176.896 133.615 181.245 119.884C185.594 106.153 186.655 91.5944 184.342 77.3795C182.028 63.1645 176.406 49.6903 167.926 38.0412C159.446 26.3921 148.346 16.8935 135.52 10.3097Z" fill="url(#paint3_linear_2258_10295)"/>
<path d="M135.52 10.3097C118.312 1.4959 98.764 -1.68714 79.6443 1.21164C60.5245 4.11043 42.8031 12.944 28.9911 26.4607L28.6817 26.7697L28.3617 27.0893L27.7429 27.7072C14.8245 40.7202 7.61203 58.3247 7.69207 76.6479C7.7721 94.9712 15.1381 112.512 28.1696 125.412C41.2011 138.312 58.8307 145.514 77.18 145.434C95.5294 145.355 113.095 137.999 126.014 124.986C117.313 133.598 105.547 138.412 93.2965 138.372C81.046 138.332 69.3116 133.441 60.6676 124.773C52.0236 116.104 47.1757 104.366 47.1876 92.1328C47.1995 79.8997 52.0701 68.1708 60.731 59.5191L61.019 59.2421C74.0219 46.6872 91.4318 39.7171 109.519 39.8251C127.606 39.9331 144.931 47.1107 157.783 59.82C170.634 72.5293 177.99 89.7594 178.273 107.819C178.557 125.878 171.747 143.33 159.301 156.436C169.379 146.135 176.896 133.615 181.245 119.884C185.594 106.153 186.655 91.5944 184.342 77.3795C182.028 63.1645 176.406 49.6903 167.926 38.0412C159.446 26.3921 148.346 16.8935 135.52 10.3097Z" fill="url(#paint4_linear_2258_10295)"/>
<path d="M135.52 10.3097C118.312 1.4959 98.764 -1.68714 79.6443 1.21164C60.5245 4.11043 42.8031 12.944 28.9911 26.4607L28.6817 26.7697L28.3617 27.0893L27.7429 27.7072C14.8245 40.7202 7.61203 58.3247 7.69207 76.6479C7.7721 94.9712 15.1381 112.512 28.1696 125.412C41.2011 138.312 58.8307 145.514 77.18 145.434C95.5294 145.355 113.095 137.999 126.014 124.986C117.313 133.598 105.547 138.412 93.2965 138.372C81.046 138.332 69.3116 133.441 60.6676 124.773C52.0236 116.104 47.1757 104.366 47.1876 92.1328C47.1995 79.8997 52.0701 68.1708 60.731 59.5191L61.019 59.2421C74.0219 46.6872 91.4318 39.7171 109.519 39.8251C127.606 39.9331 144.931 47.1107 157.783 59.82C170.634 72.5293 177.99 89.7594 178.273 107.819C178.557 125.878 171.747 143.33 159.301 156.436C169.379 146.135 176.896 133.615 181.245 119.884C185.594 106.153 186.655 91.5944 184.342 77.3795C182.028 63.1645 176.406 49.6903 167.926 38.0412C159.446 26.3921 148.346 16.8935 135.52 10.3097Z" fill="url(#paint5_linear_2258_10295)"/>
<path d="M135.52 10.3097C118.312 1.4959 98.764 -1.68714 79.6443 1.21164C60.5245 4.11043 42.8031 12.944 28.9911 26.4607L28.6817 26.7697L28.3617 27.0893L27.7429 27.7072C14.8245 40.7202 7.61203 58.3247 7.69207 76.6479C7.7721 94.9712 15.1381 112.512 28.1696 125.412C41.2011 138.312 58.8307 145.514 77.18 145.434C95.5294 145.355 113.095 137.999 126.014 124.986C117.313 133.598 105.547 138.412 93.2965 138.372C81.046 138.332 69.3116 133.441 60.6676 124.773C52.0236 116.104 47.1757 104.366 47.1876 92.1328C47.1995 79.8997 52.0701 68.1708 60.731 59.5191L61.019 59.2421C74.0219 46.6872 91.4318 39.7171 109.519 39.8251C127.606 39.9331 144.931 47.1107 157.783 59.82C170.634 72.5293 177.99 89.7594 178.273 107.819C178.557 125.878 171.747 143.33 159.301 156.436C169.379 146.135 176.896 133.615 181.245 119.884C185.594 106.153 186.655 91.5944 184.342 77.3795C182.028 63.1645 176.406 49.6903 167.926 38.0412C159.446 26.3921 148.346 16.8935 135.52 10.3097Z" fill="url(#paint6_linear_2258_10295)"/>
<defs>
<linearGradient id="paint0_linear_2258_10295" x1="19.0489" y1="148.15" x2="172.782" y2="46.1842" gradientUnits="userSpaceOnUse">
<stop stop-color="#8C8EFF"/>
<stop offset="0.549246" stop-color="#4B4EFC"/>
<stop offset="1" stop-color="#3D40F2"/>
</linearGradient>
<linearGradient id="paint1_linear_2258_10295" x1="122.102" y1="66.4462" x2="191.413" y2="22.299" gradientUnits="userSpaceOnUse">
<stop stop-color="#BFC527" stop-opacity="0"/>
<stop offset="1" stop-color="#BFC527"/>
</linearGradient>
<linearGradient id="paint2_linear_2258_10295" x1="103.58" y1="41.5651" x2="87.1271" y2="100.419" gradientUnits="userSpaceOnUse">
<stop stop-color="#FEC412"/>
<stop offset="1" stop-color="#FEC412" stop-opacity="0"/>
</linearGradient>
<linearGradient id="paint3_linear_2258_10295" x1="48.6858" y1="87.2926" x2="141.635" y2="89.9911" gradientUnits="userSpaceOnUse">
<stop stop-color="#E05063"/>
<stop offset="1" stop-color="#E05063" stop-opacity="0"/>
</linearGradient>
<linearGradient id="paint4_linear_2258_10295" x1="51.38" y1="110.493" x2="100.113" y2="46.533" gradientUnits="userSpaceOnUse">
<stop stop-color="#AF348D"/>
<stop offset="1" stop-color="#AF348D" stop-opacity="0"/>
</linearGradient>
<linearGradient id="paint5_linear_2258_10295" x1="104.59" y1="136.719" x2="78.7353" y2="48.6035" gradientUnits="userSpaceOnUse">
<stop stop-color="#3596D5"/>
<stop offset="1" stop-color="#3596D5" stop-opacity="0"/>
</linearGradient>
<linearGradient id="paint6_linear_2258_10295" x1="167.23" y1="144.788" x2="115.769" y2="103.351" gradientUnits="userSpaceOnUse">
<stop stop-color="#17A674"/>
<stop offset="1" stop-color="#17A674" stop-opacity="0"/>
</linearGradient>
</defs>
</svg>
