<svg width="41" height="41" viewBox="0 0 41 41" fill="none" xmlns="http://www.w3.org/2000/svg">
<path d="M40.0719 11.5293L39.8662 38.0925C39.8607 38.797 39.5756 39.4705 39.0736 39.9648C38.5716 40.4591 37.8938 40.7337 37.1893 40.7282L10.6261 40.5225C7.80806 40.5007 5.11414 39.3604 3.13695 37.3523C1.15975 35.3442 0.0612319 32.633 0.0830541 29.815L0.227045 11.2207C0.248868 8.40273 1.38924 5.70881 3.3973 3.73162C5.40536 1.75442 8.11661 0.655902 10.9346 0.677724L29.5289 0.821716C32.3469 0.843538 35.0408 1.98391 37.018 3.99197C38.9952 6.00003 40.0937 8.71128 40.0719 11.5293Z" fill="#12B76A"/>
<path d="M11.736 22.7232L13.3508 29.2905C13.3963 29.4752 13.419 29.5675 13.4459 29.6482C13.7094 30.4362 14.416 30.9923 15.2439 31.0632C15.3286 31.0705 15.4237 31.0709 15.6139 31.0716C15.8521 31.0725 15.9712 31.073 16.0715 31.0636C17.0635 30.9713 17.8512 30.1896 17.9512 29.1984C17.9614 29.0981 17.9618 28.979 17.9627 28.7409L18.0202 13.8933M26.8421 22.2608C28.8556 22.2686 30.4942 20.6427 30.502 18.6291C30.5098 16.6156 28.8838 14.977 26.8703 14.9692M18.2806 13.8943L14.3744 13.8792C11.7856 13.8691 9.67883 15.9597 9.66881 18.5485C9.65879 21.1373 11.7493 23.2441 14.3381 23.2541L18.2444 23.2692C20.0844 23.2763 22.3314 24.2714 24.0642 25.2247C25.0751 25.7809 25.5806 26.059 25.9125 26.0196C26.2203 25.9831 26.4534 25.8459 26.6347 25.5945C26.8302 25.3235 26.8323 24.7796 26.8365 23.6918L26.8758 13.5383C26.8801 12.4505 26.8822 11.9066 26.6888 11.634C26.5094 11.3812 26.2773 11.2422 25.9698 11.2033C25.6383 11.1614 25.1307 11.4356 24.1155 11.9839C22.3753 12.9238 20.1207 13.9014 18.2806 13.8943Z" stroke="white" stroke-width="2.2" stroke-linecap="round" stroke-linejoin="round"/>
</svg>
