<svg width="76" height="63" viewBox="0 0 76 63" fill="none" xmlns="http://www.w3.org/2000/svg">
<path d="M51 37H39M43 45H39M55 29H39M63 36V28.6C63 25.2397 63 23.5595 62.346 22.2761C61.7708 21.1471 60.8529 20.2292 59.7239 19.654C58.4405 19 56.7603 19 53.4 19H40.6C37.2397 19 35.5595 19 34.2761 19.654C33.1471 20.2292 32.2292 21.1471 31.654 22.2761C31 23.5595 31 25.2397 31 28.6V49.4C31 52.7603 31 54.4405 31.654 55.7239C32.2292 56.8529 33.1471 57.7708 34.2761 58.346C35.5595 59 37.2397 59 40.6 59H46M67 59L64 56M66 51C66 54.866 62.866 58 59 58C55.134 58 52 54.866 52 51C52 47.134 55.134 44 59 44C62.866 44 66 47.134 66 51Z" stroke="url(#paint0_linear_1972_331292)" stroke-width="2.5" stroke-linecap="round" stroke-linejoin="round"/>
<g clip-path="url(#clip0_1972_331292)">
<path d="M17.9998 50.168L17.2406 53.2048C17.0925 53.7974 17.0184 54.0937 16.8641 54.3348C16.7277 54.548 16.5466 54.7291 16.3333 54.8656C16.0922 55.0199 15.7959 55.0939 15.2033 55.2421L12.1665 56.0013L15.2033 56.7605C15.7959 56.9087 16.0922 56.9827 16.3333 57.137C16.5466 57.2735 16.7277 57.4546 16.8641 57.6678C17.0184 57.9089 17.0925 58.2052 17.2406 58.7978L17.9998 61.8346L18.759 58.7978C18.9072 58.2052 18.9813 57.9089 19.1355 57.6678C19.272 57.4546 19.4531 57.2735 19.6664 57.137C19.9075 56.9827 20.2038 56.9087 20.7963 56.7605L23.8332 56.0013L20.7963 55.2421C20.2038 55.0939 19.9075 55.0199 19.6664 54.8656C19.4531 54.7291 19.272 54.548 19.1355 54.3348C18.9813 54.0937 18.9072 53.7974 18.759 53.2048L17.9998 50.168Z" stroke="#D0D5DD" stroke-linecap="round" stroke-linejoin="round"/>
</g>
<g clip-path="url(#clip1_1972_331292)">
<path opacity="0.4" d="M64.6248 4.08464V2.6263M64.6248 2.6263V1.16797M64.6248 2.6263H63.1665M64.6248 2.6263H66.0832M64.6248 12.8346V11.3763M64.6248 11.3763V9.91797M64.6248 11.3763H63.1665M64.6248 11.3763H66.0832" stroke="#98A2B3" stroke-linecap="round" stroke-linejoin="round"/>
<path d="M69.5835 1.75L70.5951 4.38017C70.7596 4.80789 70.8419 5.02175 70.9698 5.20163C71.0831 5.36107 71.2224 5.50036 71.3819 5.61373C71.5617 5.74164 71.7756 5.82389 72.2033 5.9884L74.8335 7L72.2033 8.0116C71.7756 8.17611 71.5618 8.25836 71.3819 8.38627C71.2224 8.49964 71.0831 8.63893 70.9698 8.79837C70.8419 8.97825 70.7596 9.19211 70.5951 9.61983L69.5835 12.25L68.5719 9.61983C68.4074 9.19211 68.3251 8.97825 68.1972 8.79837C68.0839 8.63893 67.9446 8.49964 67.7851 8.38627C67.6052 8.25836 67.3914 8.17611 66.9637 8.0116L64.3335 7L66.9637 5.9884C67.3914 5.82389 67.6052 5.74164 67.7851 5.61373C67.9446 5.50036 68.0839 5.36107 68.1972 5.20163C68.3251 5.02175 68.4074 4.80789 68.5719 4.38017L69.5835 1.75Z" stroke="#98A2B3" stroke-linecap="round" stroke-linejoin="round"/>
</g>
<defs>
<linearGradient id="paint0_linear_1972_331292" x1="36.2721" y1="53.1421" x2="64.4001" y2="27.8269" gradientUnits="userSpaceOnUse">
<stop stop-color="#98A2B3"/>
<stop offset="1" stop-color="#344054"/>
</linearGradient>
<clipPath id="clip0_1972_331292">
<rect width="14" height="14" fill="white" transform="translate(11 49)"/>
</clipPath>
<clipPath id="clip1_1972_331292">
<rect width="14" height="14" fill="white" transform="translate(62)"/>
</clipPath>
</defs>
</svg>
