<svg width="76" height="63" viewBox="0 0 76 63" fill="none" xmlns="http://www.w3.org/2000/svg">
<g clip-path="url(#clip0_1972_331291)">
<g clip-path="url(#clip1_1972_331291)">
<path opacity="0.4" d="M64.6248 18.0846V16.6263M64.6248 16.6263V15.168M64.6248 16.6263H63.1665M64.6248 16.6263H66.0832M64.6248 26.8346V25.3763M64.6248 25.3763V23.918M64.6248 25.3763H63.1665M64.6248 25.3763H66.0832" stroke="#98A2B3" stroke-linecap="round" stroke-linejoin="round"/>
<path d="M69.5835 15.75L70.5951 18.3802C70.7596 18.8079 70.8419 19.0217 70.9698 19.2016C71.0831 19.3611 71.2224 19.5004 71.3819 19.6137C71.5617 19.7416 71.7756 19.8239 72.2033 19.9884L74.8335 21L72.2033 22.0116C71.7756 22.1761 71.5618 22.2584 71.3819 22.3863C71.2224 22.4996 71.0831 22.6389 70.9698 22.7984C70.8419 22.9783 70.7596 23.1921 70.5951 23.6198L69.5835 26.25L68.5719 23.6198C68.4074 23.1921 68.3251 22.9783 68.1972 22.7984C68.0839 22.6389 67.9446 22.4996 67.7851 22.3863C67.6052 22.2584 67.3914 22.1761 66.9637 22.0116L64.3335 21L66.9637 19.9884C67.3914 19.8239 67.6052 19.7416 67.7851 19.6137C67.9446 19.5004 68.0839 19.3611 68.1972 19.2016C68.3251 19.0217 68.4074 18.8079 68.5719 18.3802L69.5835 15.75Z" stroke="#98A2B3" stroke-linecap="round" stroke-linejoin="round"/>
</g>
<path d="M67 57V53C67 49.2723 64.4505 46.1401 61 45.252M54 21.5815C56.9318 22.7683 59 25.6426 59 29C59 32.3574 56.9318 35.2317 54 36.4185M57 57C57 53.2725 57 51.4087 56.391 49.9385C55.5791 47.9783 54.0217 46.4209 52.0615 45.609C50.5913 45 48.7275 45 45 45H39C35.2725 45 33.4087 45 31.9385 45.609C29.9783 46.4209 28.4209 47.9783 27.609 49.9385C27 51.4087 27 53.2725 27 57M50 29C50 33.4183 46.4183 37 42 37C37.5817 37 34 33.4183 34 29C34 24.5817 37.5817 21 42 21C46.4183 21 50 24.5817 50 29Z" stroke="url(#paint0_linear_1972_331291)" stroke-width="2.5" stroke-linecap="round" stroke-linejoin="round"/>
<g clip-path="url(#clip2_1972_331291)">
<path d="M6.99984 51.168L6.24063 54.2048C6.09248 54.7974 6.01841 55.0937 5.86414 55.3348C5.72768 55.548 5.54656 55.7291 5.33331 55.8656C5.09221 56.0199 4.79592 56.0939 4.20333 56.2421L1.1665 57.0013L4.20333 57.7605C4.79592 57.9087 5.09221 57.9827 5.33331 58.137C5.54657 58.2735 5.72768 58.4546 5.86414 58.6678C6.01841 58.9089 6.09248 59.2052 6.24063 59.7978L6.99984 62.8346L7.75904 59.7978C7.90719 59.2052 7.98126 58.9089 8.13554 58.6678C8.272 58.4546 8.45311 58.2735 8.66637 58.137C8.90747 57.9827 9.20376 57.9087 9.79634 57.7605L12.8332 57.0013L9.79634 56.2421C9.20376 56.0939 8.90747 56.0199 8.66637 55.8656C8.45311 55.7291 8.272 55.548 8.13554 55.3348C7.98126 55.0937 7.90719 54.7974 7.75904 54.2048L6.99984 51.168Z" stroke="#D0D5DD" stroke-linecap="round" stroke-linejoin="round"/>
</g>
</g>
<defs>
<linearGradient id="paint0_linear_1972_331291" x1="32.8579" y1="51.7279" x2="58.1731" y2="23.5999" gradientUnits="userSpaceOnUse">
<stop stop-color="#98A2B3"/>
<stop offset="1" stop-color="#344054"/>
</linearGradient>
<clipPath id="clip0_1972_331291">
<rect width="76" height="63" fill="white"/>
</clipPath>
<clipPath id="clip1_1972_331291">
<rect width="14" height="14" fill="white" transform="translate(62 14)"/>
</clipPath>
<clipPath id="clip2_1972_331291">
<rect width="14" height="14" fill="white" transform="translate(0 50)"/>
</clipPath>
</defs>
</svg>
