<svg width="76" height="63" viewBox="0 0 76 63" fill="none" xmlns="http://www.w3.org/2000/svg">
<g clip-path="url(#clip0_1972_331293)">
<path opacity="0.4" d="M64.6248 9.08464V7.6263M64.6248 7.6263V6.16797M64.6248 7.6263H63.1665M64.6248 7.6263H66.0832M64.6248 17.8346V16.3763M64.6248 16.3763V14.918M64.6248 16.3763H63.1665M64.6248 16.3763H66.0832" stroke="#98A2B3" stroke-linecap="round" stroke-linejoin="round"/>
<path d="M69.5835 6.75L70.5951 9.38017C70.7596 9.80789 70.8419 10.0217 70.9698 10.2016C71.0831 10.3611 71.2224 10.5004 71.3819 10.6137C71.5617 10.7416 71.7756 10.8239 72.2033 10.9884L74.8335 12L72.2033 13.0116C71.7756 13.1761 71.5618 13.2584 71.3819 13.3863C71.2224 13.4996 71.0831 13.6389 70.9698 13.7984C70.8419 13.9783 70.7596 14.1921 70.5951 14.6198L69.5835 17.25L68.5719 14.6198C68.4074 14.1921 68.3251 13.9783 68.1972 13.7984C68.0839 13.6389 67.9446 13.4996 67.7851 13.3863C67.6052 13.2584 67.3914 13.1761 66.9637 13.0116L64.3335 12L66.9637 10.9884C67.3914 10.8239 67.6052 10.7416 67.7851 10.6137C67.9446 10.5004 68.0839 10.3611 68.1972 10.2016C68.3251 10.0217 68.4074 9.80789 68.5719 9.38017L69.5835 6.75Z" stroke="#98A2B3" stroke-linecap="round" stroke-linejoin="round"/>
</g>
<path d="M29 35L29 43M38 27L38 51M47 21V57M56 27V51M65 35V43" stroke="url(#paint0_linear_1972_331293)" stroke-width="2.5" stroke-linecap="round" stroke-linejoin="round"/>
<g clip-path="url(#clip1_1972_331293)">
<path d="M16.9998 50.168L16.2406 53.2048C16.0925 53.7974 16.0184 54.0937 15.8641 54.3348C15.7277 54.548 15.5466 54.7291 15.3333 54.8656C15.0922 55.0199 14.7959 55.0939 14.2033 55.2421L11.1665 56.0013L14.2033 56.7605C14.7959 56.9087 15.0922 56.9827 15.3333 57.137C15.5466 57.2735 15.7277 57.4546 15.8641 57.6678C16.0184 57.9089 16.0925 58.2052 16.2406 58.7978L16.9998 61.8346L17.759 58.7978C17.9072 58.2052 17.9813 57.9089 18.1355 57.6678C18.272 57.4546 18.4531 57.2735 18.6664 57.137C18.9075 56.9827 19.2038 56.9087 19.7963 56.7605L22.8332 56.0013L19.7963 55.2421C19.2038 55.0939 18.9075 55.0199 18.6664 54.8656C18.4531 54.7291 18.272 54.548 18.1355 54.3348C17.9813 54.0937 17.9072 53.7974 17.759 53.2048L16.9998 50.168Z" stroke="#D0D5DD" stroke-linecap="round" stroke-linejoin="round"/>
</g>
<defs>
<linearGradient id="paint0_linear_1972_331293" x1="34.2721" y1="51.7279" x2="59.7279" y2="26.2721" gradientUnits="userSpaceOnUse">
<stop stop-color="#98A2B3"/>
<stop offset="1" stop-color="#344054"/>
</linearGradient>
<clipPath id="clip0_1972_331293">
<rect width="14" height="14" fill="white" transform="translate(62 5)"/>
</clipPath>
<clipPath id="clip1_1972_331293">
<rect width="14" height="14" fill="white" transform="translate(10 49)"/>
</clipPath>
</defs>
</svg>
