<svg width="76" height="63" viewBox="0 0 76 63" fill="none" xmlns="http://www.w3.org/2000/svg">
<path d="M41 19V23M53 19V23M41 55V59M53 55V59M63 33H67M63 43H67M27 33H31M27 43H31M40.6 55H53.4C56.7603 55 58.4405 55 59.7239 54.346C60.8529 53.7708 61.7708 52.8529 62.346 51.7239C63 50.4405 63 48.7603 63 45.4V32.6C63 29.2397 63 27.5595 62.346 26.2761C61.7708 25.1471 60.8529 24.2292 59.7239 23.654C58.4405 23 56.7603 23 53.4 23H40.6C37.2397 23 35.5595 23 34.2761 23.654C33.1471 24.2292 32.2292 25.1471 31.654 26.2761C31 27.5595 31 29.2397 31 32.6V45.4C31 48.7603 31 50.4405 31.654 51.7239C32.2292 52.8529 33.1471 53.7708 34.2761 54.346C35.5595 55 37.2397 55 40.6 55ZM44.2 45H49.8C50.9201 45 51.4802 45 51.908 44.782C52.2843 44.5903 52.5903 44.2843 52.782 43.908C53 43.4802 53 42.9201 53 41.8V36.2C53 35.0799 53 34.5198 52.782 34.092C52.5903 33.7157 52.2843 33.4097 51.908 33.218C51.4802 33 50.9201 33 49.8 33H44.2C43.0799 33 42.5198 33 42.092 33.218C41.7157 33.4097 41.4097 33.7157 41.218 34.092C41 34.5198 41 35.0799 41 36.2V41.8C41 42.9201 41 43.4802 41.218 43.908C41.4097 44.2843 41.7157 44.5903 42.092 44.782C42.5198 45 43.0799 45 44.2 45Z" stroke="url(#paint0_linear_1972_331290)" stroke-width="2.5" stroke-linecap="round" stroke-linejoin="round"/>
<g clip-path="url(#clip0_1972_331290)">
<path d="M18.9998 50.168L18.2406 53.2048C18.0925 53.7974 18.0184 54.0937 17.8641 54.3348C17.7277 54.548 17.5466 54.7291 17.3333 54.8656C17.0922 55.0199 16.7959 55.0939 16.2033 55.2421L13.1665 56.0013L16.2033 56.7605C16.7959 56.9087 17.0922 56.9827 17.3333 57.137C17.5466 57.2735 17.7277 57.4546 17.8641 57.6678C18.0184 57.9089 18.0925 58.2052 18.2406 58.7978L18.9998 61.8346L19.759 58.7978C19.9072 58.2052 19.9813 57.9089 20.1355 57.6678C20.272 57.4546 20.4531 57.2735 20.6664 57.137C20.9075 56.9827 21.2038 56.9087 21.7963 56.7605L24.8332 56.0013L21.7963 55.2421C21.2038 55.0939 20.9075 55.0199 20.6664 54.8656C20.4531 54.7291 20.272 54.548 20.1355 54.3348C19.9813 54.0937 19.9072 53.7974 19.759 53.2048L18.9998 50.168Z" stroke="#D0D5DD" stroke-linecap="round" stroke-linejoin="round"/>
</g>
<g clip-path="url(#clip1_1972_331290)">
<path opacity="0.4" d="M64.6248 11.0846V9.6263M64.6248 9.6263V8.16797M64.6248 9.6263H63.1665M64.6248 9.6263H66.0832M64.6248 19.8346V18.3763M64.6248 18.3763V16.918M64.6248 18.3763H63.1665M64.6248 18.3763H66.0832" stroke="#98A2B3" stroke-linecap="round" stroke-linejoin="round"/>
<path d="M69.5835 8.75L70.5951 11.3802C70.7596 11.8079 70.8419 12.0217 70.9698 12.2016C71.0831 12.3611 71.2224 12.5004 71.3819 12.6137C71.5617 12.7416 71.7756 12.8239 72.2033 12.9884L74.8335 14L72.2033 15.0116C71.7756 15.1761 71.5618 15.2584 71.3819 15.3863C71.2224 15.4996 71.0831 15.6389 70.9698 15.7984C70.8419 15.9783 70.7596 16.1921 70.5951 16.6198L69.5835 19.25L68.5719 16.6198C68.4074 16.1921 68.3251 15.9783 68.1972 15.7984C68.0839 15.6389 67.9446 15.4996 67.7851 15.3863C67.6052 15.2584 67.3914 15.1761 66.9637 15.0116L64.3335 14L66.9637 12.9884C67.3914 12.8239 67.6052 12.7416 67.7851 12.6137C67.9446 12.5004 68.0839 12.3611 68.1972 12.2016C68.3251 12.0217 68.4074 11.8079 68.5719 11.3802L69.5835 8.75Z" stroke="#98A2B3" stroke-linecap="round" stroke-linejoin="round"/>
</g>
<defs>
<linearGradient id="paint0_linear_1972_331290" x1="32.8579" y1="53.1421" x2="61.1421" y2="24.8579" gradientUnits="userSpaceOnUse">
<stop stop-color="#98A2B3"/>
<stop offset="1" stop-color="#344054"/>
</linearGradient>
<clipPath id="clip0_1972_331290">
<rect width="14" height="14" fill="white" transform="translate(12 49)"/>
</clipPath>
<clipPath id="clip1_1972_331290">
<rect width="14" height="14" fill="white" transform="translate(62 7)"/>
</clipPath>
</defs>
</svg>
