<svg width="20" height="20" viewBox="0 0 20 20" fill="none" xmlns="http://www.w3.org/2000/svg">
<g clip-path="url(#clip0_26818_188928)">
<path d="M4.375 17.5V13.75M4.375 6.25V2.5M2.5 4.375H6.25M2.5 15.625H6.25M10.75 3.25L9.44937 6.63165C9.23786 7.18157 9.1321 7.45653 8.96765 7.68781C8.82189 7.8928 8.6428 8.07189 8.43781 8.21765C8.20653 8.3821 7.93157 8.48786 7.38165 8.69937L4 10L7.38165 11.3006C7.93157 11.5121 8.20653 11.6179 8.43781 11.7824C8.6428 11.9281 8.82189 12.1072 8.96765 12.3122C9.1321 12.5435 9.23786 12.8184 9.44937 13.3684L10.75 16.75L12.0506 13.3684C12.2621 12.8184 12.3679 12.5435 12.5324 12.3122C12.6781 12.1072 12.8572 11.9281 13.0622 11.7824C13.2935 11.6179 13.5684 11.5121 14.1184 11.3006L17.5 10L14.1184 8.69937C13.5684 8.48786 13.2935 8.3821 13.0622 8.21765C12.8572 8.07189 12.6781 7.8928 12.5324 7.68781C12.3679 7.45653 12.2621 7.18157 12.0506 6.63165L10.75 3.25Z" stroke="#98A2B3" stroke-width="1.2" stroke-linecap="round" stroke-linejoin="round"/>
</g>
<defs>
<clipPath id="clip0_26818_188928">
<rect width="18" height="18" fill="white" transform="translate(1 1)"/>
</clipPath>
</defs>
</svg>
