<svg width="20" height="20" viewBox="0 0 20 20" fill="none" xmlns="http://www.w3.org/2000/svg">
<g id="file-check-03">
<path id="Icon" d="M11.6654 1.89136V5.33348C11.6654 5.80018 11.6654 6.03354 11.7562 6.2118C11.8361 6.3686 11.9636 6.49609 12.1204 6.57598C12.2986 6.66681 12.532 6.66681 12.9987 6.66681H16.4408M7.4987 13.3334L9.16536 15.0001L12.9154 11.2501M11.6654 1.66675H7.33203C5.9319 1.66675 5.23183 1.66675 4.69705 1.93923C4.22665 2.17892 3.8442 2.56137 3.60451 3.03177C3.33203 3.56655 3.33203 4.26662 3.33203 5.66675V14.3334C3.33203 15.7335 3.33203 16.4336 3.60451 16.9684C3.8442 17.4388 4.22665 17.8212 4.69705 18.0609C5.23183 18.3334 5.9319 18.3334 7.33203 18.3334H12.6654C14.0655 18.3334 14.7656 18.3334 15.3003 18.0609C15.7707 17.8212 16.1532 17.4388 16.3929 16.9684C16.6654 16.4336 16.6654 15.7335 16.6654 14.3334V6.66675L11.6654 1.66675Z" stroke="#667085" stroke-width="1.2" stroke-linecap="round" stroke-linejoin="round"/>
</g>
</svg>
