<svg width="20" height="20" viewBox="0 0 20 20" fill="none" xmlns="http://www.w3.org/2000/svg">
<g id="settings-04">
<path id="Icon" d="M2.5 6.66675L12.5 6.66675M12.5 6.66675C12.5 8.04746 13.6193 9.16675 15 9.16675C16.3807 9.16675 17.5 8.04746 17.5 6.66675C17.5 5.28604 16.3807 4.16675 15 4.16675C13.6193 4.16675 12.5 5.28604 12.5 6.66675ZM7.5 13.3334L17.5 13.3334M7.5 13.3334C7.5 14.7141 6.38071 15.8334 5 15.8334C3.61929 15.8334 2.5 14.7141 2.5 13.3334C2.5 11.9527 3.61929 10.8334 5 10.8334C6.38071 10.8334 7.5 11.9527 7.5 13.3334Z" stroke="#667085" stroke-width="1.2" stroke-linecap="round" stroke-linejoin="round"/>
</g>
</svg>
