<svg width="1080" height="263" viewBox="0 0 1080 263" fill="none" xmlns="http://www.w3.org/2000/svg">
<path d="M344.921 137.111C331.996 124.171 314.458 116.881 296.156 116.841C277.853 116.801 260.283 124.015 247.301 136.898C255.99 128.393 267.683 123.649 279.849 123.692C292.015 123.736 303.674 128.563 312.302 137.129C320.929 145.695 325.83 157.31 325.942 169.458C326.055 181.606 321.371 193.31 312.904 202.034L312.84 202.098L312.531 202.418L312.029 202.908C299.08 215.888 281.497 223.2 263.149 223.235C244.8 223.27 227.19 216.025 214.191 203.094C201.192 190.163 193.869 172.605 193.834 154.283C193.799 135.961 201.054 118.375 214.004 105.395C196.722 122.63 187.005 146.016 186.99 170.406C186.975 194.796 196.664 218.193 213.924 235.45C231.184 252.707 254.603 262.41 279.027 262.425C303.452 262.44 326.882 252.765 344.164 235.53C344.281 235.423 344.399 235.316 344.505 235.199L344.932 234.784L345.071 234.635C345.263 234.454 345.444 234.262 345.626 234.07L345.871 233.825C358.421 220.788 365.352 203.357 365.174 185.274C364.997 167.191 357.725 149.899 344.921 137.111Z" fill="url(#paint0_linear_305_35)"/>
<path d="M321.519 88.31C304.312 79.496 284.763 76.313 265.643 79.212C246.524 82.11 228.802 90.944 214.99 104.461L214.681 104.77L214.361 105.089L213.742 105.707C200.824 118.72 193.611 136.325 193.691 154.648C193.771 172.971 201.137 190.512 214.169 203.412C227.2 216.312 244.83 223.514 263.179 223.434C281.528 223.355 299.094 215.999 312.013 202.986C303.312 211.598 291.546 216.412 279.296 216.372C267.045 216.332 255.311 211.441 246.667 202.773C238.023 194.104 233.175 182.366 233.187 170.133C233.199 157.9 238.069 146.171 246.73 137.519L247.018 137.242C260.021 124.687 277.431 117.717 295.518 117.825C313.605 117.933 330.93 125.111 343.782 137.82C356.633 150.529 363.989 167.759 364.273 185.819C364.556 203.878 357.746 221.33 345.3 234.436C355.378 224.135 362.895 211.615 367.244 197.884C371.594 184.153 372.654 169.594 370.341 155.379C368.027 141.164 362.405 127.69 353.925 116.041C345.445 104.392 334.345 94.894 321.519 88.31Z" fill="#17A674"/>
<path d="M321.519 88.31C304.312 79.496 284.763 76.313 265.643 79.212C246.524 82.11 228.802 90.944 214.99 104.461L214.681 104.77L214.361 105.089L213.742 105.707C200.824 118.72 193.611 136.325 193.691 154.648C193.771 172.971 201.137 190.512 214.169 203.412C227.2 216.312 244.83 223.514 263.179 223.434C281.528 223.355 299.094 215.999 312.013 202.986C303.312 211.598 291.546 216.412 279.296 216.372C267.045 216.332 255.311 211.441 246.667 202.773C238.023 194.104 233.175 182.366 233.187 170.133C233.199 157.9 238.069 146.171 246.73 137.519L247.018 137.242C260.021 124.687 277.431 117.717 295.518 117.825C313.605 117.933 330.93 125.111 343.782 137.82C356.633 150.529 363.989 167.759 364.273 185.819C364.556 203.878 357.746 221.33 345.3 234.436C355.378 224.135 362.895 211.615 367.244 197.884C371.594 184.153 372.654 169.594 370.341 155.379C368.027 141.164 362.405 127.69 353.925 116.041C345.445 104.392 334.345 94.894 321.519 88.31Z" fill="url(#paint1_linear_305_35)"/>
<path d="M321.519 88.31C304.312 79.496 284.763 76.313 265.643 79.212C246.524 82.11 228.802 90.944 214.99 104.461L214.681 104.77L214.361 105.089L213.742 105.707C200.824 118.72 193.611 136.325 193.691 154.648C193.771 172.971 201.137 190.512 214.169 203.412C227.2 216.312 244.83 223.514 263.179 223.434C281.528 223.355 299.094 215.999 312.013 202.986C303.312 211.598 291.546 216.412 279.296 216.372C267.045 216.332 255.311 211.441 246.667 202.773C238.023 194.104 233.175 182.366 233.187 170.133C233.199 157.9 238.069 146.171 246.73 137.519L247.018 137.242C260.021 124.687 277.431 117.717 295.518 117.825C313.605 117.933 330.93 125.111 343.782 137.82C356.633 150.529 363.989 167.759 364.273 185.819C364.556 203.878 357.746 221.33 345.3 234.436C355.378 224.135 362.895 211.615 367.244 197.884C371.594 184.153 372.654 169.594 370.341 155.379C368.027 141.164 362.405 127.69 353.925 116.041C345.445 104.392 334.345 94.894 321.519 88.31Z" fill="url(#paint2_linear_305_35)"/>
<path d="M321.519 88.31C304.312 79.496 284.763 76.313 265.643 79.212C246.524 82.11 228.802 90.944 214.99 104.461L214.681 104.77L214.361 105.089L213.742 105.707C200.824 118.72 193.611 136.325 193.691 154.648C193.771 172.971 201.137 190.512 214.169 203.412C227.2 216.312 244.83 223.514 263.179 223.434C281.528 223.355 299.094 215.999 312.013 202.986C303.312 211.598 291.546 216.412 279.296 216.372C267.045 216.332 255.311 211.441 246.667 202.773C238.023 194.104 233.175 182.366 233.187 170.133C233.199 157.9 238.069 146.171 246.73 137.519L247.018 137.242C260.021 124.687 277.431 117.717 295.518 117.825C313.605 117.933 330.93 125.111 343.782 137.82C356.633 150.529 363.989 167.759 364.273 185.819C364.556 203.878 357.746 221.33 345.3 234.436C355.378 224.135 362.895 211.615 367.244 197.884C371.594 184.153 372.654 169.594 370.341 155.379C368.027 141.164 362.405 127.69 353.925 116.041C345.445 104.392 334.345 94.894 321.519 88.31Z" fill="url(#paint3_linear_305_35)"/>
<path d="M321.519 88.31C304.312 79.496 284.763 76.313 265.643 79.212C246.524 82.11 228.802 90.944 214.99 104.461L214.681 104.77L214.361 105.089L213.742 105.707C200.824 118.72 193.611 136.325 193.691 154.648C193.771 172.971 201.137 190.512 214.169 203.412C227.2 216.312 244.83 223.514 263.179 223.434C281.528 223.355 299.094 215.999 312.013 202.986C303.312 211.598 291.546 216.412 279.296 216.372C267.045 216.332 255.311 211.441 246.667 202.773C238.023 194.104 233.175 182.366 233.187 170.133C233.199 157.9 238.069 146.171 246.73 137.519L247.018 137.242C260.021 124.687 277.431 117.717 295.518 117.825C313.605 117.933 330.93 125.111 343.782 137.82C356.633 150.529 363.989 167.759 364.273 185.819C364.556 203.878 357.746 221.33 345.3 234.436C355.378 224.135 362.895 211.615 367.244 197.884C371.594 184.153 372.654 169.594 370.341 155.379C368.027 141.164 362.405 127.69 353.925 116.041C345.445 104.392 334.345 94.894 321.519 88.31Z" fill="url(#paint4_linear_305_35)"/>
<path d="M321.519 88.31C304.312 79.496 284.763 76.313 265.643 79.212C246.524 82.11 228.802 90.944 214.99 104.461L214.681 104.77L214.361 105.089L213.742 105.707C200.824 118.72 193.611 136.325 193.691 154.648C193.771 172.971 201.137 190.512 214.169 203.412C227.2 216.312 244.83 223.514 263.179 223.434C281.528 223.355 299.094 215.999 312.013 202.986C303.312 211.598 291.546 216.412 279.296 216.372C267.045 216.332 255.311 211.441 246.667 202.773C238.023 194.104 233.175 182.366 233.187 170.133C233.199 157.9 238.069 146.171 246.73 137.519L247.018 137.242C260.021 124.687 277.431 117.717 295.518 117.825C313.605 117.933 330.93 125.111 343.782 137.82C356.633 150.529 363.989 167.759 364.273 185.819C364.556 203.878 357.746 221.33 345.3 234.436C355.378 224.135 362.895 211.615 367.244 197.884C371.594 184.153 372.654 169.594 370.341 155.379C368.027 141.164 362.405 127.69 353.925 116.041C345.445 104.392 334.345 94.894 321.519 88.31Z" fill="url(#paint5_linear_305_35)"/>
<path d="M321.519 88.31C304.312 79.496 284.763 76.313 265.643 79.212C246.524 82.11 228.802 90.944 214.99 104.461L214.681 104.77L214.361 105.089L213.742 105.707C200.824 118.72 193.611 136.325 193.691 154.648C193.771 172.971 201.137 190.512 214.169 203.412C227.2 216.312 244.83 223.514 263.179 223.434C281.528 223.355 299.094 215.999 312.013 202.986C303.312 211.598 291.546 216.412 279.296 216.372C267.045 216.332 255.311 211.441 246.667 202.773C238.023 194.104 233.175 182.366 233.187 170.133C233.199 157.9 238.069 146.171 246.73 137.519L247.018 137.242C260.021 124.687 277.431 117.717 295.518 117.825C313.605 117.933 330.93 125.111 343.782 137.82C356.633 150.529 363.989 167.759 364.273 185.819C364.556 203.878 357.746 221.33 345.3 234.436C355.378 224.135 362.895 211.615 367.244 197.884C371.594 184.153 372.654 169.594 370.341 155.379C368.027 141.164 362.405 127.69 353.925 116.041C345.445 104.392 334.345 94.894 321.519 88.31Z" fill="url(#paint6_linear_305_35)"/>
<path d="M914.55 109.039V152.625C905.81 164.29 894.2 168.277 882.57 168.277C861.89 168.277 847.47 150.886 847.47 130.991C847.47 110.778 861.89 93.057 882.57 93.057C894.2 93.057 905.81 97.109 914.55 109.039Z" fill="white"/>
<path d="M1038 0.063996H799.642C794.126 0.062996 788.664 1.15399 783.567 3.27499C778.47 5.39699 773.839 8.507 769.938 12.429C766.037 16.35 762.943 21.006 760.832 26.13C758.72 31.254 757.634 36.746 757.634 42.292V177.398C789.169 177.525 813.806 201.715 813.806 232.723C813.857 242.925 811.098 252.942 805.833 261.664H1038C1049.14 261.655 1059.81 257.203 1067.69 249.286C1075.56 241.368 1079.99 230.632 1080 219.435V42.335C1080.01 36.785 1078.92 31.289 1076.82 26.16C1074.71 21.031 1071.62 16.37 1067.72 12.444C1063.82 8.518 1059.18 5.404 1054.08 3.28C1048.99 1.155 1043.52 0.062996 1038 0.063996ZM953.93 201.916H914.55V191.067C904.09 197.929 891.35 201.916 876.06 201.916C838.65 201.916 808.343 170.589 808.343 130.991C808.343 90.82 838.65 59.748 876.06 59.748C891.32 59.748 904.09 63.735 914.55 70.597V59.748H953.93V201.916ZM1029.32 201.916H989.94V59.748H1029.37L1029.32 201.916Z" fill="white"/>
<path d="M118.209 154.353L188.937 78.624H123.188L52.85 154.735V0H0V261.727H52.85V223.857L82.15 192.923L130.402 261.727H196.91L118.209 154.353Z" fill="white"/>
<path d="M441.513 101.859V78.529H389.485V261.727H441.513V154.162C456.511 137.608 476.318 129.326 504.383 128.234V78.561C477.826 78.561 457.597 86.832 441.513 101.859Z" fill="white"/>
<path d="M686.17 165.775C686.17 111.998 649.34 76.821 599.875 76.821C545.295 76.821 508.117 115.656 508.117 169.37C508.117 221.333 545.654 261.632 601.246 261.632C642.095 261.632 674.59 238.715 683.966 205.278H631.664C626.228 214.009 616.462 218.375 602.364 218.375C574.942 218.375 561.579 202.393 557.614 182.053H685.084C685.872 176.664 686.235 171.221 686.17 165.775ZM557.93 152.296C562.645 132.73 575.987 118.541 600.181 118.541C620.421 118.541 633.436 130.545 636.304 152.296H557.93Z" fill="white"/>
<path d="M757.466 203.963C741.256 203.963 727.851 216.349 727.851 232.659C727.851 249.341 741.256 261.727 757.466 261.727C774.067 261.727 787.472 249.341 787.472 232.659C787.472 216.338 774.067 203.963 757.466 203.963Z" fill="white"/>
<path d="M246.564 137.623L246.787 137.407C246.728 137.458 246.673 137.513 246.622 137.573L246.564 137.623Z" fill="url(#paint7_linear_305_35)"/>
<path d="M343.284 234.833L343.391 234.716L343.036 235.074L343.284 234.833Z" fill="url(#paint8_linear_305_35)"/>
<defs>
<linearGradient id="paint0_linear_305_35" x1="205.049" y1="226.15" x2="358.782" y2="124.184" gradientUnits="userSpaceOnUse">
<stop stop-color="#8C8EFF"/>
<stop offset="0.549246" stop-color="#4B4EFC"/>
<stop offset="1" stop-color="#3D40F2"/>
</linearGradient>
<linearGradient id="paint1_linear_305_35" x1="308.101" y1="144.446" x2="377.412" y2="100.299" gradientUnits="userSpaceOnUse">
<stop stop-color="#BFC527" stop-opacity="0"/>
<stop offset="1" stop-color="#BFC527"/>
</linearGradient>
<linearGradient id="paint2_linear_305_35" x1="289.579" y1="119.565" x2="273.126" y2="178.419" gradientUnits="userSpaceOnUse">
<stop stop-color="#FEC412"/>
<stop offset="1" stop-color="#FEC412" stop-opacity="0"/>
</linearGradient>
<linearGradient id="paint3_linear_305_35" x1="234.685" y1="165.293" x2="327.634" y2="167.991" gradientUnits="userSpaceOnUse">
<stop stop-color="#E05063"/>
<stop offset="1" stop-color="#E05063" stop-opacity="0"/>
</linearGradient>
<linearGradient id="paint4_linear_305_35" x1="237.379" y1="188.493" x2="286.112" y2="124.533" gradientUnits="userSpaceOnUse">
<stop stop-color="#AF348D"/>
<stop offset="1" stop-color="#AF348D" stop-opacity="0"/>
</linearGradient>
<linearGradient id="paint5_linear_305_35" x1="290.589" y1="214.719" x2="264.734" y2="126.603" gradientUnits="userSpaceOnUse">
<stop stop-color="#3596D5"/>
<stop offset="1" stop-color="#3596D5" stop-opacity="0"/>
</linearGradient>
<linearGradient id="paint6_linear_305_35" x1="353.229" y1="222.788" x2="301.768" y2="181.351" gradientUnits="userSpaceOnUse">
<stop stop-color="#17A674"/>
<stop offset="1" stop-color="#17A674" stop-opacity="0"/>
</linearGradient>
<linearGradient id="paint7_linear_305_35" x1="279.611" y1="183.914" x2="297.965" y2="164.958" gradientUnits="userSpaceOnUse">
<stop stop-color="#009DAB" stop-opacity="0"/>
<stop offset="1" stop-color="#009DAB"/>
</linearGradient>
<linearGradient id="paint8_linear_305_35" x1="392.677" y1="183.433" x2="306.863" y2="271.723" gradientUnits="userSpaceOnUse">
<stop offset="0.24" stop-color="#009DAB" stop-opacity="0"/>
<stop offset="1" stop-color="#009DAB"/>
</linearGradient>
</defs>
</svg>
